<svg width="135" height="25" viewBox="0 0 135 25" fill="none" xmlns="http://www.w3.org/2000/svg">
<path fill-rule="evenodd" clip-rule="evenodd" d="M50.9886 2.75526C54.9194 -0.475513 61.004 -0.421667 65.0425 2.64756C68.4348 5.33987 69.3502 9.97064 69.0271 14.0629C65.2559 14.0989 61.4607 14.0869 57.6735 14.0749C55.7829 14.0689 53.8944 14.0629 52.0117 14.0629C52.281 16.3245 53.5194 18.6399 55.7271 19.5014C58.904 21.0629 63.104 19.5553 64.2348 16.1091C64.5351 16.2023 64.8333 16.2955 65.1304 16.3883L65.1306 16.3883L65.1307 16.3884C66.3784 16.7782 67.6044 17.1612 68.8656 17.5091C68.004 19.8783 66.4425 22.086 64.181 23.3245C59.7656 25.8553 53.6271 25.1014 50.0194 21.4399C45.0656 16.486 45.4425 7.17064 50.9886 2.75526ZM14.9656 1.13999C10.4963 -0.744628 4.89634 1.13999 2.36557 5.23229C-0.972892 10.4554 -0.326738 18.2092 4.46557 22.4092C8.34249 25.7477 15.504 25.9092 18.2502 21.0092C18.2771 21.5477 18.304 22.0727 18.331 22.5977C18.3579 23.1227 18.3848 23.6477 18.4117 24.1861H23.6886C23.4145 19.2861 23.4457 14.3861 23.4768 9.48615C23.4946 6.68615 23.5124 3.88615 23.4733 1.08614H18.0886C18.0886 2.10922 18.0886 3.07845 18.1425 4.04768C17.3348 2.80922 16.3656 1.67845 14.9656 1.13999ZM6.99634 17.132C4.73481 13.255 5.59634 6.57811 10.5502 5.33965C13.1348 4.69349 16.1502 5.87811 17.281 8.35503C18.7348 11.532 18.5194 15.732 16.0425 18.3166C13.5656 20.955 8.71942 20.3089 6.99634 17.132ZM52.2332 9.63745C52.514 8.67114 52.8076 7.66089 53.5194 6.90159C55.4579 4.58621 59.281 4.37082 61.5964 6.0939C62.8348 7.00928 63.2656 8.51698 63.6425 9.91698C60.7735 10.0786 57.8742 10.0583 54.9901 10.0381H54.99H54.9898H54.9897H54.9896C54.0306 10.0314 53.0734 10.0247 52.1194 10.0247C52.1578 9.89687 52.1954 9.76756 52.2332 9.63745ZM77.2656 2.53987C80.981 -0.313974 86.4194 -0.313974 90.3502 2.1091C94.2271 4.63987 95.5194 9.70141 94.981 14.0629C91.2117 14.0271 87.4425 14.039 83.6733 14.051L83.6724 14.051C81.788 14.057 79.9037 14.0629 78.0194 14.0629C78.2887 15.4091 78.6117 16.8091 79.5271 17.8322C81.5733 20.3629 85.6656 20.8476 88.2502 18.9091C88.8717 18.4603 89.2718 17.8121 89.6634 17.1777C89.8825 16.8227 90.099 16.4721 90.3502 16.1629C91.481 16.4456 92.6117 16.8192 93.7425 17.1928C94.1194 17.3173 94.4963 17.4418 94.8733 17.5629C94.0117 19.986 92.3963 22.1937 90.081 23.4322C85.7194 25.8014 79.7963 25.1553 76.2425 21.6553C70.9656 16.6476 71.3963 6.90141 77.2656 2.53987ZM78.1786 9.66761C78.4614 8.70204 78.7484 7.72195 79.4194 6.95515C81.4117 4.47822 85.4502 4.31669 87.7655 6.25515C88.8963 7.22438 89.2732 8.67822 89.5425 10.0244H78.0732C78.1088 9.90596 78.1436 9.7869 78.1786 9.66761ZM105.535 3.88603C108.604 -0.852436 116.735 -0.79859 119.319 4.37064C121.796 0.116795 127.989 -0.852436 131.866 2.00141C133.966 3.61679 134.935 6.3091 134.935 8.89372C134.971 12.267 134.959 15.6403 134.947 19.0136V19.0168C134.941 20.704 134.935 22.3912 134.935 24.0783H129.604V10.4553C129.604 9.05526 129.389 7.54756 128.419 6.52449C126.373 4.47833 122.442 5.01679 121.096 7.60141C120.396 8.78603 120.396 10.2399 120.396 11.5322V24.0783H115.012C114.989 21.9781 114.995 19.8779 115.002 17.7818V17.7798V17.7797C115.011 14.9863 115.019 12.2005 114.958 9.43218C114.958 7.27833 113.181 5.28603 110.973 5.33987C108.389 4.96295 105.966 7.06295 105.804 9.59372C105.707 12.5033 105.727 15.413 105.746 18.3109V18.3116C105.759 20.2402 105.772 22.1635 105.75 24.0783H100.312V0.978333H105.589C105.589 2.00141 105.589 2.97064 105.535 3.88603ZM35.8579 1.03242H30.4733V24.1324H35.9656C35.9925 22.2209 35.9925 20.3093 35.9925 18.3978C35.9925 16.4863 35.9925 14.5747 36.0194 12.6632C36.0733 10.7247 36.6656 8.51703 38.3887 7.38626C39.8424 6.32014 41.6888 6.38795 43.4173 6.45143C43.6095 6.45849 43.8001 6.46549 43.9887 6.47088V0.817032C40.8117 0.386262 37.3117 1.62472 35.804 4.64011C35.804 4.0478 35.8175 3.44203 35.831 2.83626C35.8444 2.23049 35.8579 1.62472 35.8579 1.03242Z" fill="#ABAFC7"/>
</svg>
