<svg xmlns="http://www.w3.org/2000/svg" version="1.1" xmlns:xlink="http://www.w3.org/1999/xlink" xmlns:svgjs="http://svgjs.dev/svgjs" viewBox="0 0 800 800"><defs><linearGradient x1="50%" y1="0%" x2="50%" y2="100%" id="ccchaos-grad"><stop stop-color="hsl(105, 78%, 61%)" stop-opacity="1" offset="0%"></stop><stop stop-color="hsl(0, 77%, 62%)" stop-opacity="1" offset="100%"></stop></linearGradient></defs><g stroke-width="2" stroke="url(#ccchaos-grad)" fill="none" stroke-linecap="round"><path d="M398.63 104.43C408.47 102.75 418.51 101.9 428.74 101.88 438.99 102.25 449.45 103.48 460.1 105.53 470.79 107.97 481.67 111.19 492.7 115.15 503.76 119.42 514.93 124.33 526.13 129.83 537.26 135.51 548.32 141.68 559.16 148.26 569.74 154.9 579.92 161.86 589.5 169.08 598.54 176.23 606.74 183.59 613.91 191.11 620.26 198.48 625.38 205.98 629.14 213.58 632.01 221.01 633.52 228.53 633.73 236.14 633.35 243.57 632.01 251.11 629.95 258.77 628.09 266.26 626.17 273.91 624.58 281.71 624.22 289.38 624.89 297.24 626.9 305.3 630.87 313.27 636.48 321.47 643.72 329.91 652.72 338.3 662.88 346.94 673.76 355.86 685.08 364.74 695.97 373.92 705.72 383.38 714.06 392.83 720.07 402.59 723.22 412.65 723.74 422.71 721.1 432.85 715.6 443.03 708.02 453.22 698.46 463.45 687.57 473.7 676.27 483.95 664.86 494.19 653.93 504.39 644.18 514.57 635.69 524.67 628.69 534.62 623.57 544.51 619.97 554.21 617.74 563.64 617.09 572.92 617.28 581.86 617.97 590.38 619.37 598.65 620.6 606.41 621.36 613.56 621.8 623.43 616.43 638.85 610.19 644.19 604.86 647.06 598.4 649.09 590.94 650.29 582.88 651.2 574.02 651.4 564.55 650.94 554.71 650.44 544.45 649.5 533.92 648.21 523.23 647.24 512.41 646.19 501.57 645.2 490.69 644.88 479.85 644.85 469.14 645.22 458.43 646.51 447.86 648.33 437.47 650.7 427.09 654.03 416.87 657.84 406.84 662.06 396.8 666.98 387.16 671.92 377.91 676.69 368.62 681.67 359.68 686.12 351.07 689.89 342.4 693.38 334.01 695.9 325.89 697.36 317.65 698.2 309.62 697.83 301.77 696.26 293.75 693.94 285.84 690.42 278.03 685.78 269.98 680.45 261.96 674.11 253.97 666.89 245.71 659.17 237.46 650.73 229.21 641.72 220.75 632.43 212.34 622.72 204.02 612.72 195.62 602.64 187.42 592.39 179.51 582.05 171.71 571.76 164.35 561.46 157.53 551.19 151.03 541.05 145.19 530.95 140.1 520.94 135.45 511.06 131.59 501.24 128.55 491.49 125.91 481.85 124.01 472.25 122.81 462.68 121.79 453.19 121.3 443.7 121.27 434.21 121.09 424.76 121.15 415.29 121.4 405.8 121.23 396.32 121.1 386.8 121 377.26 120.41 367.73 119.89 358.39 119.51 349.28 118.84 340.17 118.48 331.29 118.53 322.66 118.61 314.04 119.3 305.7 120.66 297.64 122.35 289.61 124.84 281.89 128.14 274.51 131.89 267.16 136.47 260.15 141.8 253.51 147.52 246.89 153.9 240.63 160.84 234.75 167.97 228.86 175.5 223.32 183.33 218.14 191.13 212.91 199.09 207.99 207.13 203.37 214.97 198.63 222.82 194.13 230.67 189.87 238.22 185.41 245.77 181.11 253.32 176.97 260.58 172.55 267.89 168.24 275.28 164.02 282.44 159.49 289.76 155.03 297.25 150.66 304.59 145.98 312.17 141.42 320.01 137 327.76 132.35 335.83 127.92 344.22 123.77 352.55 119.54 361.25 115.69 370.31 112.33 379.35 109.06 388.78 106.4 398.62 104.43" stroke-dasharray="6 2" transform="rotate(0, 400, 400)" opacity="1.00"></path><path d="M405.27 115.15C414.88 113.48 424.68 112.61 434.63 112.53 444.61 112.82 454.76 113.92 465.05 115.82 475.36 118.08 485.79 121.11 496.3 124.83 506.79 128.87 517.29 133.54 527.71 138.78 538 144.21 548.09 150.13 557.84 156.47 567.28 162.88 576.21 169.63 584.45 176.66 592.15 183.66 598.96 190.87 604.74 198.26 609.8 205.53 613.7 212.95 616.37 220.48 618.35 227.85 619.17 235.33 618.94 242.91 618.37 250.32 617.11 257.84 615.4 265.46 614.08 272.94 612.91 280.55 612.23 288.29 612.8 295.92 614.42 303.71 617.34 311.68 622.03 319.56 628.19 327.65 635.75 335.94 644.81 344.18 654.79 352.65 665.27 361.36 676.04 370.04 686.28 378.98 695.37 388.18 703.13 397.36 708.7 406.82 711.64 416.55 712.18 426.28 709.82 436.05 704.8 445.85 697.85 455.64 689.01 465.46 678.84 475.25 668.17 485.03 657.23 494.78 646.56 504.45 636.82 514.08 628.09 523.59 620.6 532.93 614.77 542.19 610.31 551.22 607.13 559.95 605.46 568.53 604.7 576.74 604.55 584.5 605.23 592.04 605.97 599.04 606.47 605.45 607.01 614.27 603.39 627.84 598.63 632.44 594.48 634.92 589.27 636.64 583.09 637.63 576.36 638.4 568.8 638.55 560.55 638.14 551.93 637.76 542.79 636.99 533.27 635.96 523.55 635.26 513.59 634.51 503.5 633.83 493.33 633.8 483.11 634.03 472.92 634.63 462.72 636.08 452.58 637.99 442.54 640.37 432.52 643.63 422.6 647.31 412.82 651.33 403.03 656 393.59 660.66 384.49 665.16 375.36 669.86 366.53 674.08 357.98 677.68 349.37 681.06 341 683.55 332.84 685.09 324.57 686.09 316.47 685.99 308.5 684.78 300.37 682.91 292.32 679.92 284.33 675.87 276.14 671.19 267.97 665.54 259.82 659.03 251.46 652.03 243.11 644.31 234.8 636 226.35 627.38 217.98 618.32 209.76 608.91 201.53 599.38 193.56 589.62 185.92 579.73 178.45 569.84 171.46 559.88 165.04 549.92 158.96 540.03 153.56 530.17 148.9 520.36 144.68 510.65 141.22 500.98 138.55 491.39 136.24 481.89 134.63 472.42 133.68 463.02 132.87 453.67 132.54 444.35 132.63 435.06 132.55 425.81 132.68 416.56 132.96 407.32 132.81 398.1 132.69 388.88 132.58 379.68 131.97 370.48 131.42 361.5 130.98 352.77 130.23 344.04 129.77 335.56 129.68 327.34 129.6 319.13 130.08 311.2 131.2 303.56 132.61 295.94 134.78 288.62 137.74 281.64 141.13 274.66 145.32 268.01 150.26 261.72 155.61 255.42 161.63 249.46 168.23 243.85 175.07 238.2 182.36 232.88 189.99 227.88 197.66 222.8 205.53 218 213.55 213.47 221.42 208.8 229.36 204.35 237.31 200.1 245.02 195.64 252.73 191.33 260.44 187.16 267.89 182.72 275.37 178.37 282.91 174.12 290.22 169.57 297.64 165.09 305.2 160.71 312.59 156.05 320.18 151.51 328 147.12 335.7 142.54 343.68 138.17 351.95 134.1 360.15 129.95 368.69 126.19 377.57 122.9 386.42 119.71 395.65 117.1 405.26 115.15" stroke-dasharray="6 11" transform="rotate(4.04, 400, 400)" opacity="0.96"></path><path d="M411.45 125.88C420.81 124.22 430.31 123.33 439.93 123.19 449.56 123.4 459.3 124.38 469.12 126.13 478.94 128.22 488.81 131.03 498.66 134.53 508.45 138.33 518.15 142.74 527.66 147.71 537.01 152.89 546.04 158.54 554.64 164.62 562.91 170.79 570.59 177.31 577.53 184.12 583.96 190.92 589.52 197.96 594.08 205.18 598.03 212.33 600.94 219.62 602.78 227.04 604.11 234.34 604.51 241.75 604.08 249.25 603.55 256.62 602.55 264.1 601.35 271.66 600.68 279.1 600.32 286.66 600.55 294.34 602.03 301.91 604.53 309.63 608.24 317.49 613.56 325.28 620.15 333.24 627.92 341.39 636.95 349.48 646.68 357.77 656.73 366.28 666.93 374.75 676.52 383.45 684.97 392.38 692.17 401.3 697.32 410.45 700.06 419.83 700.62 429.22 698.51 438.62 693.95 448 687.61 457.39 679.47 466.76 670.01 476.07 659.97 485.37 649.55 494.6 639.22 503.71 629.59 512.78 620.74 521.7 612.9 530.4 606.49 539.02 601.29 547.38 597.25 555.41 594.63 563.3 592.92 570.8 591.9 577.84 591.84 587.82 592.26 604.55 591.47 611.08 589.6 616.48 580.67 623.36 573.52 624.93 567.98 625.62 561.62 625.78 554.55 625.45 547.11 625.2 539.09 624.64 530.62 623.86 521.92 623.42 512.9 622.97 503.63 622.59 494.27 622.82 484.76 623.3 475.18 624.1 465.57 625.68 455.94 627.66 446.33 630.05 436.73 633.24 427.17 636.78 417.67 640.61 408.17 645.03 398.95 649.42 390.01 653.65 381.04 658.08 372.31 662.07 363.81 665.49 355.25 668.74 346.88 671.2 338.68 672.78 330.38 673.91 322.19 674.04 314.11 673.16 305.89 671.68 297.72 669.17 289.59 665.68 281.3 661.6 273.03 656.61 264.79 650.78 256.4 644.49 248.05 637.48 239.77 629.87 231.41 621.94 223.18 613.54 215.16 604.76 207.18 595.82 199.51 586.62 192.22 577.23 185.16 567.8 178.59 558.26 172.62 548.68 167.01 539.13 162.07 529.56 157.86 520.03 154.07 510.56 151.01 501.12 148.7 491.74 146.72 482.43 145.38 473.16 144.66 463.96 144.04 454.8 143.86 445.68 144.04 436.62 144.04 427.58 144.23 418.57 144.53 409.61 144.41 400.65 144.29 391.73 144.16 382.85 143.54 373.97 142.97 365.34 142.47 356.97 141.67 348.6 141.12 340.49 140.91 332.65 140.68 324.82 140.97 317.26 141.85 310.01 142.99 302.75 144.86 295.79 147.46 289.16 150.48 282.52 154.27 276.19 158.8 270.19 163.74 264.17 169.36 258.46 175.57 253.07 182.07 247.63 189.04 242.49 196.4 237.62 203.86 232.67 211.58 227.96 219.48 223.49 227.31 218.87 235.25 214.44 243.24 210.19 251.04 205.73 258.87 201.4 266.71 197.2 274.33 192.73 281.97 188.36 289.64 184.07 297.11 179.52 304.67 175.04 312.31 170.66 319.81 166.03 327.45 161.52 335.27 157.19 342.99 152.67 350.93 148.39 359.12 144.39 367.24 140.34 375.65 136.67 384.37 133.45 393.06 130.34 402.08 127.79 411.44 125.88" stroke-dasharray="9 1" transform="rotate(8.08, 400, 400)" opacity="0.92"></path><path d="M416.62 136.6C425.7 134.96 434.86 134.05 444.07 133.86 453.29 133.99 462.55 134.86 471.8 136.45 481.04 138.37 490.24 140.99 499.33 144.25 508.34 147.8 517.16 151.96 525.7 156.65 534.05 161.56 542.01 166.94 549.46 172.74 556.59 178.65 563.08 184.91 568.83 191.47 574.13 198.05 578.59 204.88 582.13 211.91 585.2 218.89 587.35 226.03 588.61 233.31 589.55 240.49 589.77 247.79 589.38 255.2 589.07 262.49 588.5 269.88 587.91 277.36 587.98 284.74 588.45 292.23 589.57 299.81 591.89 307.31 595.2 314.93 599.6 322.68 605.41 330.36 612.32 338.2 620.21 346.18 629.12 354.12 638.55 362.23 648.13 370.52 657.74 378.78 666.7 387.24 674.53 395.88 681.18 404.52 685.94 413.35 688.48 422.38 689.05 431.41 687.18 440.41 683.06 449.38 677.3 458.34 669.83 467.24 661.07 476.06 651.69 484.86 641.83 493.56 631.9 502.1 622.46 510.6 613.6 518.91 605.55 526.98 598.68 534.97 592.86 542.67 588.08 550.02 584.59 557.24 581.98 564.06 580.09 570.42 578.83 579.41 577.8 594.31 576.89 600.06 571.83 607.82 555.28 612.99 546.61 612.87 540.28 612.78 533.33 612.43 525.87 611.91 518.2 611.73 510.12 611.56 501.72 611.46 493.21 611.94 484.46 612.64 475.55 613.62 466.6 615.31 457.54 617.35 448.43 619.74 439.3 622.84 430.14 626.25 420.97 629.88 411.8 634.06 402.83 638.19 394.07 642.15 385.28 646.32 376.68 650.08 368.24 653.32 359.76 656.44 351.41 658.83 343.18 660.44 334.87 661.67 326.64 661.99 318.48 661.38 310.21 660.26 301.98 658.19 293.78 655.2 285.47 651.69 277.18 647.31 268.94 642.14 260.61 636.53 252.34 630.21 244.19 623.3 236.03 616.06 228.04 608.34 220.3 600.21 212.67 591.9 205.38 583.28 198.51 574.45 191.91 565.54 185.82 556.48 180.34 547.33 175.22 538.18 170.76 528.99 167.01 519.79 163.65 510.63 160.99 501.49 159.03 492.38 157.35 483.33 156.28 474.31 155.76 465.35 155.31 456.43 155.25 447.55 155.52 438.73 155.58 429.94 155.8 421.2 156.11 412.52 156 403.84 155.88 395.22 155.74 386.66 155.12 378.1 154.52 369.8 153.99 361.78 153.14 353.75 152.52 345.98 152.21 338.5 151.84 331.01 151.96 323.8 152.63 316.88 153.51 309.96 155.07 303.32 157.33 296.99 159.97 290.64 163.36 284.59 167.46 278.85 171.97 273.06 177.14 267.57 182.93 262.36 189.02 257.09 195.62 252.08 202.64 247.33 209.8 242.47 217.28 237.82 224.99 233.39 232.7 228.81 240.55 224.39 248.49 220.12 256.31 215.66 264.19 211.31 272.08 207.07 279.82 202.59 287.57 198.19 295.35 193.89 302.96 189.33 310.63 184.86 318.37 180.5 325.96 175.91 333.67 171.46 341.51 167.18 349.26 162.75 357.18 158.55 365.3 154.64 373.36 150.7 381.66 147.13 390.21 143.99 398.73 140.97 407.53 138.48 416.61 136.6" stroke-dasharray="6 10" transform="rotate(12.12, 400, 400)" opacity="0.89"></path><path d="M420.33 147.32C429.09 145.71 437.86 144.79 446.61 144.55 455.35 144.6 464.07 145.36 472.69 146.8 481.29 148.55 489.76 150.96 498.04 154 506.21 157.31 514.13 161.19 521.68 165.61 529.05 170.23 535.96 175.32 542.33 180.83 548.41 186.46 553.84 192.44 558.55 198.73 562.89 205.07 566.45 211.65 569.21 218.45 571.62 225.23 573.27 232.18 574.2 239.28 574.97 246.31 575.22 253.47 575.06 260.73 575.12 267.91 575.11 275.19 575.21 282.56 576.03 289.84 577.33 297.22 579.29 304.69 582.38 312.09 586.39 319.6 591.36 327.21 597.57 334.76 604.69 342.45 612.59 350.26 621.31 358.03 630.38 365.95 639.46 374.01 648.47 382.04 656.8 390.24 664.04 398.59 670.16 406.93 674.55 415.44 676.9 424.09 677.47 432.75 675.83 441.35 672.12 449.88 666.91 458.4 660.09 466.83 652.01 475.15 643.3 483.44 634.02 491.6 624.55 499.57 615.4 507.5 606.63 515.21 598.48 522.66 591.3 530.02 584.99 537.09 579.59 543.79 575.33 550.37 571.9 556.55 569.18 562.28 566.69 570.36 563.89 583.64 562.59 588.72 558.08 595.61 544.31 600.38 536.98 600.44 531.61 600.52 525.63 600.39 519.11 600.12 512.4 600.2 505.23 600.29 497.68 600.46 490.02 601.16 482.05 602.05 473.84 603.19 465.58 604.98 457.14 607.06 448.55 609.43 439.95 612.45 431.24 615.71 422.44 619.16 413.63 623.1 404.95 626.97 396.4 630.68 387.84 634.59 379.4 638.12 371.06 641.18 362.69 644.15 354.41 646.47 346.21 648.08 337.94 649.38 329.72 649.85 321.56 649.48 313.32 648.68 305.1 646.99 296.93 644.47 288.68 641.48 280.47 637.67 272.34 633.11 264.17 628.15 256.1 622.5 248.18 616.27 240.31 609.72 232.66 602.67 225.29 595.2 218.09 587.54 211.26 579.55 204.88 571.3 198.78 562.95 193.21 554.42 188.24 545.76 183.63 537.08 179.67 528.31 176.38 519.52 173.45 510.73 171.17 501.94 169.54 493.16 168.15 484.42 167.31 475.7 166.98 467.03 166.67 458.39 166.71 449.8 167.04 441.26 167.15 432.75 167.39 424.29 167.71 415.9 167.6 407.52 167.48 399.2 167.33 390.96 166.7 382.72 166.09 374.75 165.53 367.05 164.65 359.34 163.98 351.9 163.57 344.74 163.1 337.57 163.06 330.67 163.53 324.06 164.17 317.43 165.44 311.08 167.37 305.02 169.64 298.93 172.61 293.11 176.28 287.58 180.33 282 185.04 276.68 190.36 271.62 196 266.48 202.16 261.58 208.78 256.91 215.58 252.12 222.74 247.53 230.16 243.12 237.64 238.56 245.31 234.14 253.11 229.86 260.86 225.39 268.69 221.02 276.57 216.76 284.34 212.27 292.14 207.87 299.96 203.55 307.66 199.01 315.4 194.57 323.18 190.23 330.85 185.7 338.6 181.32 346.45 177.11 354.21 172.77 362.11 168.67 370.15 164.86 378.14 161.03 386.31 157.56 394.67 154.52 403.01 151.59 411.56 149.17 420.32 147.33" stroke-dasharray="9 9" transform="rotate(16.16, 400, 400)" opacity="0.85"></path><path d="M422.26 158.05C430.66 156.46 438.99 155.53 447.23 155.24 455.46 155.23 463.58 155.88 471.55 157.17 479.47 158.76 487.18 160.97 494.64 163.77 501.99 166.84 509.01 170.46 515.62 174.59 522.06 178.92 528.01 183.71 533.42 188.91 538.56 194.24 543.09 199.93 546.95 205.93 550.53 211.99 553.42 218.31 555.62 224.85 557.61 231.39 558.99 238.12 559.81 245 560.63 251.84 561.08 258.82 561.31 265.9 561.87 272.92 562.48 280.05 563.31 287.27 564.88 294.42 566.97 301.66 569.7 308.98 573.48 316.25 578.07 323.61 583.5 331.06 589.98 338.46 597.2 345.98 605.03 353.59 613.49 361.17 622.15 368.87 630.71 376.69 639.13 384.48 646.84 392.41 653.49 400.45 659.12 408.48 663.15 416.64 665.32 424.92 665.9 433.19 664.46 441.37 661.13 449.45 656.44 457.53 650.25 465.48 642.85 473.29 634.8 481.07 626.12 488.69 617.15 496.1 608.36 503.46 599.79 510.59 591.65 517.44 584.29 524.2 577.63 530.66 571.73 536.76 566.83 542.74 562.67 548.33 559.19 553.47 553.12 566.67 547.03 580.87 544.51 583.62 536.85 586.83 518.81 588.48 510.54 588.51 504.68 588.83 498.35 589.16 491.6 589.57 484.75 590.47 477.53 591.54 470.02 592.82 462.45 594.68 454.63 596.79 446.6 599.14 438.55 602.05 430.32 605.17 421.93 608.44 413.54 612.14 405.19 615.77 396.91 619.23 388.62 622.88 380.39 626.18 372.21 629.06 364.02 631.87 355.87 634.11 347.76 635.7 339.61 637.04 331.5 637.63 323.41 637.47 315.29 636.93 307.19 635.59 299.15 633.48 291.07 630.96 283.05 627.68 275.14 623.7 267.24 619.34 259.47 614.34 251.9 608.76 244.42 602.88 237.19 596.5 230.29 589.7 223.58 582.69 217.26 575.33 211.42 567.7 205.86 559.95 200.84 551.98 196.41 543.86 192.31 535.68 188.83 527.4 186 519.05 183.48 510.7 181.56 502.31 180.24 493.92 179.12 485.54 178.49 477.17 178.31 468.84 178.12 460.52 178.25 452.25 178.62 444.03 178.76 435.83 179.01 427.67 179.31 419.6 179.21 411.53 179.07 403.52 178.91 395.6 178.28 387.68 177.66 380.02 177.09 372.63 176.19 365.24 175.48 358.11 175 351.25 174.44 344.37 174.27 337.76 174.55 331.42 174.98 325.06 175.98 318.96 177.58 313.13 179.49 307.27 182.06 301.66 185.29 296.3 188.88 290.89 193.11 285.71 197.93 280.77 203.09 275.75 208.77 270.94 214.92 266.32 221.29 261.59 228.04 257.03 235.1 252.64 242.27 248.09 249.66 243.67 257.23 239.38 264.8 234.9 272.48 230.53 280.24 226.25 287.94 221.77 295.7 217.37 303.48 213.06 311.18 208.55 318.92 204.14 326.69 199.86 334.38 195.4 342.13 191.09 349.93 186.97 357.67 182.74 365.5 178.75 373.43 175.05 381.32 171.34 389.33 167.98 397.46 165.04 405.59 162.2 413.85 159.85 422.25 158.05" stroke-dasharray="0 6" transform="rotate(20.200000000000003, 400, 400)" opacity="0.81"></path><path d="M422.23 168.77C430.23 167.22 438.1 166.28 445.8 165.95 453.49 165.87 461 166.42 468.29 167.57 475.53 168.99 482.51 171.01 489.17 173.58 495.74 176.4 501.93 179.76 507.69 183.6 513.3 187.63 518.42 192.12 523 197 527.39 202.02 531.2 207.4 534.42 213.08 537.44 218.84 539.88 224.87 541.76 231.12 543.54 237.39 544.85 243.86 545.76 250.49 546.78 257.1 547.59 263.85 548.31 270.72 549.44 277.55 550.71 284.49 552.28 291.51 554.57 298.49 557.37 305.55 560.79 312.69 565.14 319.79 570.2 326.97 575.96 334.23 582.6 341.45 589.83 348.77 597.5 356.16 605.64 363.52 613.85 370.99 621.88 378.53 629.69 386.07 636.8 393.7 642.9 401.42 648.06 409.13 651.74 416.93 653.73 424.81 654.31 432.69 653.06 440.45 650.1 448.08 645.91 455.7 640.3 463.17 633.56 470.47 626.16 477.75 618.11 484.84 609.68 491.7 601.32 498.52 593.02 505.09 585 511.36 577.59 517.57 570.71 523.46 564.45 528.99 559.04 534.42 554.27 539.47 550.12 544.1 541.92 555.95 533.55 568.73 530.8 571.26 523.66 574.44 507.78 576.7 500.52 577.07 495.38 577.61 489.77 578.18 483.74 578.81 477.61 579.88 471.1 581.11 464.25 582.5 457.35 584.41 450.14 586.53 442.67 588.84 435.18 591.66 427.45 594.63 419.5 597.71 411.55 601.19 403.58 604.57 395.62 607.79 387.66 611.19 379.7 614.27 371.76 616.96 363.81 619.62 355.86 621.75 347.94 623.31 340 624.66 332.08 625.35 324.19 625.36 316.29 625.04 308.42 624.01 300.61 622.27 292.81 620.17 285.1 617.37 277.52 613.92 269.99 610.13 262.63 605.73 255.5 600.77 248.49 595.54 241.77 589.81 235.4 583.66 229.24 577.31 223.5 570.59 218.22 563.58 213.23 556.45 208.77 549.07 204.87 541.51 201.29 533.89 198.29 526.13 195.88 518.27 193.75 510.4 192.17 502.46 191.13 494.49 190.24 486.53 189.79 478.55 189.74 470.6 189.66 462.65 189.84 454.73 190.24 446.85 190.39 438.99 190.63 431.17 190.92 423.42 190.81 415.68 190.67 408 190.49 400.4 189.87 392.8 189.25 385.46 188.66 378.37 187.77 371.28 187.03 364.44 186.5 357.86 185.86 351.26 185.58 344.92 185.7 338.82 185.93 332.71 186.68 326.83 187.99 321.2 189.55 315.53 191.74 310.1 194.53 304.89 197.66 299.63 201.4 294.58 205.72 289.73 210.35 284.8 215.52 280.06 221.15 275.49 227.04 270.81 233.32 266.28 239.93 261.9 246.7 257.37 253.73 252.95 260.95 248.65 268.24 244.18 275.67 239.81 283.21 235.53 290.74 231.06 298.34 226.69 305.99 222.41 313.6 217.95 321.25 213.6 328.92 209.37 336.54 205 344.21 200.79 351.9 196.77 359.55 192.66 367.26 188.79 375.02 185.2 382.75 181.62 390.56 178.38 398.43 175.54 406.29 172.8 414.23 170.52 422.22 168.77" stroke-dasharray="0 10" transform="rotate(24.24, 400, 400)" opacity="0.77"></path><path d="M420.26 179.49C427.82 177.98 435.19 177.04 442.35 176.67 449.49 176.53 456.4 176.98 463.04 178 469.63 179.26 475.91 181.08 481.85 183.43 487.7 186.01 493.16 189.1 498.18 192.65 503.09 196.39 507.52 200.56 511.46 205.12 515.26 209.82 518.55 214.86 521.33 220.21 524 225.65 526.2 231.36 527.96 237.3 529.72 243.27 531.14 249.45 532.3 255.79 533.66 262.14 534.92 268.63 536.2 275.25 537.93 281.84 539.87 288.54 542.13 295.33 545.08 302.1 548.52 308.95 552.51 315.87 557.32 322.76 562.73 329.73 568.71 336.76 575.41 343.76 582.54 350.84 589.97 357.98 597.74 365.11 605.48 372.31 612.95 379.56 620.18 386.81 626.7 394.13 632.27 401.51 636.96 408.88 640.32 416.31 642.15 423.78 642.73 431.25 641.65 438.59 639.03 445.76 635.29 452.93 630.26 459.93 624.15 466.73 617.4 473.52 609.98 480.09 602.12 486.43 594.23 492.72 586.29 498.76 578.49 504.5 571.14 510.18 564.17 515.54 557.68 520.56 551.9 525.49 546.65 530.06 541.93 534.23 531.77 544.94 520.91 556.57 517.73 558.94 510.57 562.21 495.97 565.11 489.48 565.81 482.41 566.95 466.03 570.06 456.84 572.23 450.55 574.18 443.92 576.29 437 578.55 430.06 581.26 422.83 584.09 415.36 586.99 407.88 590.24 400.33 593.39 392.74 596.38 385.16 599.53 377.54 602.39 369.91 604.9 362.28 607.39 354.63 609.41 346.99 610.92 339.35 612.26 331.72 613.01 324.13 613.15 316.55 613.03 309.02 612.25 301.57 610.83 294.16 609.11 286.86 606.75 279.71 603.78 272.65 600.51 265.79 596.67 259.18 592.3 252.72 587.68 246.57 582.58 240.78 577.07 235.21 571.35 230.06 565.28 225.38 558.89 220.97 552.38 217.06 545.61 213.69 538.64 210.6 531.59 208.05 524.37 206.05 517.05 204.28 509.68 203 502.23 202.21 494.73 201.52 487.22 201.23 479.67 201.28 472.13 201.27 464.59 201.49 457.06 201.89 449.56 202.05 442.06 202.28 434.6 202.54 427.2 202.41 419.8 202.26 412.46 202.07 405.19 201.46 397.92 200.85 390.89 200.26 384.1 199.38 377.31 198.62 370.75 198.06 364.43 197.37 358.1 197 352 196.98 346.13 197.3 337.4 200.75 320.99 204.04 313.27 206.71 308.14 209.97 303.19 213.77 298.43 217.88 293.59 222.5 288.9 227.59 284.38 232.94 279.74 238.7 275.24 244.81 270.87 251.09 266.36 257.66 261.96 264.47 257.66 271.37 253.22 278.45 248.86 285.66 244.59 292.91 240.16 300.25 235.82 307.66 231.59 315.06 227.2 322.52 222.92 330 218.78 337.45 214.51 344.94 210.41 352.45 206.5 359.93 202.52 367.44 198.78 374.96 195.32 382.48 191.87 390.02 188.76 397.57 186.02 405.12 183.39 412.68 181.2 420.25 179.5" stroke-dasharray="0 0" transform="rotate(28.28, 400, 400)" opacity="0.73"></path><path d="M416.5 190.22C423.61 188.74 430.48 187.8 437.1 187.4 443.7 187.21 450.03 187.57 456.06 188.45 464.88 190.38 480.67 197.08 487.52 201.75 493.82 207.12 504.12 219.99 508.14 227.35 510.65 232.45 512.78 237.82 514.59 243.42 516.49 249.07 518.16 254.92 519.68 260.95 521.45 266.99 523.23 273.19 525.09 279.51 527.41 285.83 529.98 292.26 532.87 298.78 536.4 305.29 540.37 311.88 544.83 318.55 549.97 325.19 555.61 331.91 561.69 338.68 568.34 345.43 575.3 352.24 582.43 359.1 589.78 365.96 597.01 372.86 603.93 379.81 610.57 386.75 616.53 393.73 621.58 400.75 625.85 407.77 628.9 414.81 630.57 421.87 631.14 428.93 630.22 435.83 627.91 442.56 624.61 449.27 620.11 455.8 614.61 462.13 608.49 468.43 601.7 474.52 594.44 480.35 587.06 486.16 579.54 491.69 572.05 496.94 564.86 502.14 557.93 507.02 551.35 511.58 545.33 516.06 539.74 520.21 534.59 523.98 528 529.35 517.41 538.09 513.06 541.48 505.7 546.6 493.93 551.57 489.12 552.57 483.93 553.73 471.53 556.15 464.31 557.62 459.33 558.98 453.96 560.44 448.24 562 442.49 563.97 436.4 566.06 430 568.27 423.58 570.86 416.86 573.54 409.87 576.27 402.87 579.3 395.77 582.22 388.61 584.98 381.45 587.9 374.23 590.55 366.98 592.87 359.74 595.19 352.48 597.09 345.21 598.54 337.97 599.85 330.73 600.64 323.54 600.88 316.39 600.9 309.29 600.35 302.29 599.21 295.37 597.82 288.57 595.84 281.94 593.31 275.44 590.52 269.14 587.19 263.12 583.37 257.27 579.32 251.73 574.82 246.55 569.91 241.6 564.81 237.05 559.36 232.96 553.59 229.12 547.7 225.76 541.54 222.89 535.16 220.27 528.69 218.14 522.05 216.51 515.27 215.06 508.44 214.05 501.51 213.47 494.5 212.96 487.47 212.78 480.39 212.91 473.29 212.95 466.18 213.19 459.07 213.58 451.96 213.73 444.87 213.93 437.79 214.16 430.75 214.02 423.71 213.85 416.72 213.65 409.78 213.05 402.85 212.45 396.13 211.88 389.64 211.01 383.14 210.26 376.86 209.67 370.79 208.73 361.78 208.46 344.76 209.4 336.74 211.1 328.85 217.45 313.89 222.14 306.78 225.72 302.01 229.79 297.39 234.32 292.91 239.1 288.32 244.3 283.86 249.85 279.51 255.59 275.04 261.64 270.66 267.94 266.39 274.37 261.98 281.01 257.65 287.8 253.42 294.65 249.05 301.63 244.78 308.69 240.6 315.78 236.3 322.93 232.12 330.12 228.07 337.31 223.93 344.53 219.95 351.75 216.17 358.98 212.34 366.21 208.74 373.43 205.41 380.65 202.11 387.86 199.12 395.04 196.5 402.23 193.97 409.39 191.87 416.49 190.22" stroke-dasharray="5 2" transform="rotate(32.32, 400, 400)" opacity="0.70"></path><path d="M411.3 200.94C417.93 199.51 424.3 198.58 430.4 198.15 439.38 198.04 455.78 200.63 463.12 203.27 470.02 206.66 481.9 215.83 486.85 221.49 491.4 227.7 498.87 241.78 501.98 249.52 504.11 254.82 506.13 260.33 508.07 266.01 510.31 271.72 512.61 277.59 515.04 283.59 517.91 289.59 521.04 295.71 524.49 301.93 528.49 308.14 532.88 314.44 537.67 320.81 543.03 327.16 548.78 333.59 554.86 340.06 561.36 346.52 568.07 353.04 574.84 359.59 581.73 366.14 588.45 372.72 594.81 379.33 600.88 385.94 606.28 392.57 610.85 399.21 614.71 405.86 617.47 412.51 618.99 419.15 619.54 425.79 618.78 432.26 616.76 438.54 613.86 444.81 609.87 450.89 604.94 456.75 599.44 462.59 593.28 468.21 586.62 473.58 579.79 478.92 572.74 483.99 565.63 488.79 558.71 493.54 551.93 498 545.38 502.15 539.25 506.24 533.45 510.02 528.01 513.45 520.78 518.36 508.66 526.43 503.51 529.6 494.82 534.61 481.98 539.9 477.18 541.14 472.15 542.56 460.49 545.5 453.81 547.2 446.75 549.43 430.91 554.82 422.18 557.98 416.25 560.46 410.02 563 403.51 565.54 397 568.37 390.38 571.07 383.68 573.61 376.98 576.3 370.22 578.73 363.42 580.87 356.63 583.02 349.82 584.79 343.01 586.16 336.24 587.43 329.48 588.23 322.78 588.55 316.13 588.69 309.56 588.31 303.11 587.41 296.74 586.3 290.51 584.66 284.48 582.52 278.58 580.15 272.91 577.3 267.52 573.98 262.29 570.46 257.39 566.52 252.84 562.18 248.5 557.67 244.56 552.82 241.04 547.65 237.75 542.36 234.9 536.8 232.5 531.01 230.31 525.13 228.56 519.07 227.26 512.84 226.09 506.57 225.31 500.16 224.91 493.67 224.53 487.15 224.45 480.56 224.63 473.92 224.7 467.27 224.93 460.6 225.3 453.91 225.42 447.23 225.59 440.55 225.78 433.89 225.63 427.24 225.44 420.6 225.23 414.01 224.65 407.42 224.07 401.03 223.51 394.83 222.67 388.63 221.93 382.62 221.34 376.8 220.36 368.16 219.77 351.75 220.42 343.98 221.7 336.32 226.91 321.71 230.89 314.73 233.94 310.05 237.47 305.49 241.44 301.06 245.64 296.53 250.24 292.12 255.21 287.8 260.37 283.38 265.84 279.05 271.58 274.82 277.47 270.47 283.58 266.2 289.86 262.03 296.24 257.74 302.76 253.54 309.38 249.46 316.05 245.26 322.8 241.19 329.6 237.26 336.42 233.26 343.27 229.42 350.13 225.78 357 222.1 363.88 218.65 370.72 215.47 377.57 212.31 384.4 209.46 391.17 206.96 397.94 204.55 404.66 202.53 411.29 200.94" stroke-dasharray="8 10" transform="rotate(36.36, 400, 400)" opacity="0.66"></path><path d="M405.11 211.66C414.2 209.82 431.02 208.72 438.69 209.46 448.65 211.29 457.35 214.92 464.73 220.15 472.03 226 478.11 233.29 483.1 241.75 488.39 250.61 493.11 260.45 497.64 271.02 503.33 281.76 509.64 293.1 516.92 304.83 526.1 316.6 536.59 328.71 548.14 340.99 560.95 353.27 573.78 365.73 585.58 378.22 591.09 384.48 595.97 390.74 600.07 396.99 603.54 403.25 606.03 409.5 607.41 415.71 607.95 421.93 607.31 427.97 605.56 433.81 603.03 439.65 599.52 445.29 595.14 450.71 584.89 461.5 572.52 471.37 559.18 480.19 546.21 488.87 533.67 496.43 522.09 502.77 512.14 508.98 503.26 514.01 495.28 517.86 488.63 521.75 482.25 524.68 475.75 526.75 469.81 529.29 463.17 531.36 455.62 533.13 448.14 535.88 439.52 538.7 429.73 541.67 424.82 543.63 419.62 545.64 414.14 547.7 408.64 550.06 402.88 552.44 396.85 554.82 390.82 557.44 384.68 559.92 378.46 562.25 372.26 564.72 365.99 566.94 359.69 568.9 347.15 572.86 334.57 575.34 322.23 576.17 310.14 576.48 298.47 574.88 287.56 571.45 277.16 567.29 267.78 561.35 259.74 553.89 252.44 545.85 246.65 536.5 242.53 526.16 239.05 515.49 237.07 504.06 236.5 492.15 235.91 480.12 236.17 467.75 237.03 455.26 237.12 449.01 237.25 442.75 237.4 436.48 237.23 430.22 237.03 423.96 236.81 417.72 236.25 411.49 235.69 405.42 235.15 399.52 234.35 393.62 233.64 387.88 233.05 382.32 231.48 371.15 230.93 360.62 231.64 350.72 232.72 340.68 235.52 331.18 240.04 322.21 245.39 312.97 252.48 304.13 261.02 295.72 270.3 286.93 280.78 278.47 292.11 270.4 303.85 261.93 316.17 253.86 328.77 246.35 341.54 238.61 354.44 231.57 367.24 225.5 373.66 222.5 380.05 219.79 386.36 217.41 392.69 215.12 398.95 213.19 405.1 211.67" stroke-dasharray="7 3" transform="rotate(40.400000000000006, 400, 400)" opacity="0.62"></path><path d="M398.46 222.39C409.81 219.87 420.16 219.1 429.41 220.01 438.61 221.56 446.7 224.77 453.67 229.47 460.67 234.73 466.72 241.34 471.99 249.07 477.67 257.18 483.05 266.25 488.45 276.04 494.96 286.03 502.1 296.61 510.11 307.59 519.68 318.63 530.24 330.02 541.51 341.57 553.63 353.14 565.52 364.87 576.24 376.61 585.8 388.35 592.63 400.11 595.83 411.7 596.13 423.29 592.38 434.14 585.22 444.15 576.13 454.12 564.94 463.19 552.64 471.26 540.41 479.24 528.27 486.19 516.74 492.05 506.44 497.83 496.98 502.58 488.32 506.3 480.84 510.14 473.71 513.15 466.66 515.43 460.21 518.18 453.33 520.53 445.82 522.61 438.46 525.56 430.2 528.53 421 531.57 411.79 535.68 401.59 539.92 390.46 544.1 379.33 549.11 367.86 553.47 356.3 556.97 344.84 560.61 333.4 562.91 322.26 563.77 311.38 564.22 300.99 562.99 291.4 560.12 282.27 556.65 274.16 551.57 267.34 545.07 261.13 538.06 256.3 529.81 252.99 520.58 250.13 511.04 248.58 500.72 248.25 489.85 247.77 478.86 248.02 467.47 248.79 455.88 248.63 444.27 248.52 432.52 248.39 420.77 247.01 409.03 245.76 397.83 244.81 387.23 243.27 376.58 242.62 366.46 243.05 356.89 243.72 347.2 245.91 337.96 249.63 329.18 254.03 320.17 260.03 311.52 267.4 303.26 275.46 294.68 284.69 286.41 294.8 278.54 305.34 270.35 316.51 262.56 328.02 255.34 339.74 247.95 351.64 241.26 363.46 235.5 375.36 229.87 387.1 225.41 398.45 222.39" stroke-dasharray="8 1" transform="rotate(44.44, 400, 400)" opacity="0.58"></path><path d="M391.95 233.11C402.38 230.69 411.92 229.87 420.52 230.6 429.09 231.88 436.75 234.69 443.52 238.87 450.39 243.55 456.57 249.5 462.22 256.5 468.35 263.86 474.37 272.14 480.54 281.12 487.71 290.31 495.48 300.09 503.96 310.27 513.67 320.54 524.09 331.14 534.9 341.91 546.23 352.72 557.13 363.67 566.79 374.61 575.33 385.56 581.4 396.49 584.25 407.24 584.61 417.99 581.41 428.02 575.16 437.23 567.17 446.42 557.17 454.76 545.97 462.17 534.61 469.53 523.06 475.95 511.81 481.4 501.45 486.84 491.7 491.37 482.59 495.03 474.47 498.83 466.73 501.93 459.18 504.42 452.22 507.35 445.04 509.94 437.47 512.27 430.11 515.37 422.09 518.44 413.37 521.51 404.66 525.49 395.16 529.49 384.91 533.37 374.66 537.97 364.2 541.93 353.73 545.08 343.36 548.39 333.1 550.51 323.21 551.35 313.56 551.9 304.46 550.96 296.16 548.56 288.27 545.69 281.37 541.37 275.66 535.74 270.44 529.68 266.48 522.45 263.84 514.27 261.5 505.81 260.28 496.56 260.1 486.72 259.7 476.77 259.9 466.36 260.54 455.68 260.32 444.98 260.14 434.05 259.98 423.05 258.66 412.05 257.49 401.49 256.61 391.41 255.13 381.3 254.42 371.62 254.65 362.41 254.99 353.09 256.65 344.15 259.66 335.61 263.2 326.88 268.19 318.46 274.45 310.41 281.3 302.09 289.29 294.07 298.16 286.45 307.44 278.59 317.39 271.13 327.74 264.24 338.31 257.23 349.1 250.9 359.89 245.47 370.77 240.18 381.53 235.98 391.95 233.11" stroke-dasharray="2 7" transform="rotate(48.48, 400, 400)" opacity="0.54"></path><path d="M386.15 243.84C395.7 241.52 404.52 240.67 412.57 241.22 420.63 242.26 427.99 244.69 434.68 248.37 441.52 252.5 447.9 257.79 453.97 264.07 460.51 270.68 467.09 278.17 473.87 286.33 481.51 294.69 489.67 303.63 498.37 312.97 508 322.42 518.07 332.19 528.26 342.14 538.72 352.13 548.6 362.26 557.22 372.38 564.8 382.51 570.15 392.61 572.67 402.52 573.08 412.43 570.38 421.65 564.98 430.12 558.04 438.57 549.19 446.23 539.11 453.06 528.73 459.86 517.93 465.83 507.19 470.95 497.03 476.09 487.24 480.46 477.95 484.07 469.44 487.85 461.26 491.05 453.35 493.72 445.95 496.8 438.5 499.58 430.86 502.11 423.44 505.3 415.59 508.42 407.26 511.48 398.97 515.3 390.1 519.07 380.68 522.65 371.26 526.84 361.78 530.41 352.4 533.23 343.1 536.21 334.01 538.14 325.36 538.94 316.91 539.53 309.04 538.82 301.97 536.82 295.24 534.45 289.44 530.79 284.73 525.93 280.39 520.73 277.15 514.44 275.06 507.24 273.13 499.8 272.16 491.57 272.07 482.74 271.68 473.8 271.8 464.36 272.31 454.59 272 444.79 271.76 434.71 271.56 424.48 270.32 414.24 269.25 404.33 268.44 394.82 267.05 385.27 266.33 376.06 266.41 367.24 266.5 358.33 267.73 349.73 270.13 341.49 272.93 333.08 277 324.95 282.24 317.16 287.96 309.17 294.75 301.46 302.4 294.15 310.41 286.66 319.12 279.57 328.28 273.04 337.64 266.45 347.3 260.51 357.03 255.42 366.83 250.48 376.6 246.54 386.15 243.84" stroke-dasharray="4 2" transform="rotate(52.52, 400, 400)" opacity="0.51"></path><path d="M381.56 254.56C390.27 252.36 398.45 251.49 406.05 251.89 413.68 252.7 420.81 254.77 427.48 257.97 434.32 261.57 440.9 266.23 447.33 271.8 454.19 277.67 461.17 284.36 468.37 291.69 476.26 299.22 484.56 307.31 493.22 315.78 502.54 324.37 512.09 333.29 521.54 342.38 531.07 351.52 539.91 360.8 547.53 370.07 554.2 379.36 558.88 388.62 561.08 397.7 561.53 406.78 559.28 415.24 554.66 423 548.71 430.75 540.98 437.8 532.04 444.1 522.7 450.39 512.79 455.97 502.73 460.8 493.01 465.69 483.46 469.91 474.24 473.5 465.59 477.27 457.21 480.53 449.1 483.35 441.43 486.54 433.8 489.45 426.13 492.12 418.67 495.36 410.98 498.48 403.01 501.48 395.08 505.12 386.78 508.64 378.15 511.93 369.51 515.72 360.95 518.92 352.62 521.42 344.34 524.08 336.37 525.81 328.89 526.54 321.56 527.14 314.84 526.6 308.9 524.92 300.79 521.43 289.59 508.56 286.6 499.53 284.99 493.04 284.17 485.78 284.09 477.91 283.68 469.94 283.7 461.45 284.06 452.58 283.67 443.68 283.37 434.45 283.14 424.99 281.99 415.54 281.02 406.31 280.3 397.38 279.02 388.42 278.33 379.73 278.32 371.35 278.24 362.89 279.14 354.69 281.03 346.8 283.19 338.77 286.47 331 290.79 323.54 295.48 315.92 301.16 308.59 307.66 301.64 314.46 294.57 321.96 287.89 329.94 281.77 338.1 275.61 346.62 270.08 355.3 265.35 364.04 260.76 372.85 257.1 381.56 254.56" stroke-dasharray="2 7" transform="rotate(56.56, 400, 400)" opacity="0.47"></path><path d="M378.59 265.28C386.52 263.21 394.1 262.34 401.29 262.59 408.52 263.2 415.45 264.93 422.1 267.69 428.92 270.77 435.63 274.83 442.29 279.71 449.32 284.86 456.51 290.77 463.89 297.28 471.79 303.97 479.99 311.19 488.38 318.8 497.21 326.51 506.08 334.54 514.7 342.76 523.25 351.03 531.07 359.44 537.72 367.85 543.53 376.29 547.59 384.71 549.5 392.97 549.97 401.24 548.12 408.94 544.22 416.03 539.18 423.12 532.53 429.59 524.71 435.41 516.45 441.25 507.52 446.46 498.3 451.04 489.22 455.69 480.14 459.79 471.23 463.35 462.71 467.08 454.39 470.39 446.29 473.31 438.54 476.56 430.87 479.56 423.28 482.31 415.86 485.53 408.35 488.61 400.75 491.52 393.19 494.95 385.43 498.21 377.53 501.2 369.62 504.62 361.94 507.46 354.58 509.65 347.25 512 340.31 513.52 333.9 514.17 324.74 514.53 310.13 509.99 304.97 505.12 300.87 499.01 296.65 482.38 296.17 472.24 295.7 465.2 295.6 457.63 295.8 449.64 295.34 441.63 294.98 433.24 294.72 424.58 293.66 415.92 292.79 407.39 292.17 399.08 291.04 390.76 290.41 382.62 290.37 374.73 290.19 366.78 290.83 359.04 292.33 351.55 293.98 343.97 296.6 336.62 300.12 329.55 303.91 322.38 308.59 315.47 314.04 308.95 319.72 302.33 326.08 296.11 332.96 290.42 339.97 284.72 347.39 279.61 355.06 275.25 362.78 271.02 370.66 267.65 378.59 265.28" stroke-dasharray="1 6" transform="rotate(60.599999999999994, 400, 400)" opacity="0.43"></path><path d="M377.5 276.01C384.68 274.07 391.7 273.2 398.5 273.33 405.33 273.76 412.03 275.18 418.59 277.52 425.31 280.13 432.02 283.6 438.75 287.83 445.77 292.29 452.94 297.43 460.26 303.14 467.94 309 475.81 315.37 483.73 322.1 491.91 328.93 499.98 336.08 507.69 343.41 515.24 350.79 522.07 358.33 527.79 365.89 532.79 373.46 536.27 381.04 537.92 388.51 538.4 395.97 536.91 402.95 533.66 409.4 529.45 415.85 523.82 421.78 517.09 427.16 509.92 432.55 502.03 437.43 493.76 441.78 485.49 446.2 477.08 450.16 468.71 453.66 460.58 457.34 452.54 460.65 444.68 463.62 437.07 466.87 429.55 469.88 422.16 472.65 414.92 475.81 407.68 478.8 400.47 481.58 393.31 484.78 386.1 487.78 378.89 490.48 371.67 493.52 364.79 496.02 358.31 497.93 348.84 500.63 332.53 502.18 325.98 500.81 320.26 498.38 312.51 489.03 310.42 482.3 309.15 477.44 308.44 471.91 308.24 465.81 307.7 459.63 307.47 452.94 307.52 445.81 306.99 438.66 306.58 431.11 306.3 423.25 305.34 415.39 304.58 407.6 304.06 399.95 303.08 392.28 302.54 384.74 302.5 377.39 302.3 370.01 302.78 362.78 303.98 355.77 305.24 348.71 307.31 341.83 310.18 335.23 313.21 328.55 317.04 322.13 321.57 316.07 326.26 309.96 331.59 304.23 337.45 299 343.41 293.78 349.81 289.11 356.54 285.13 363.29 281.28 370.31 278.19 377.5 276.01" stroke-dasharray="7 5" transform="rotate(64.64, 400, 400)" opacity="0.39"></path><path d="M378.38 286.73C384.86 284.94 391.31 284.09 397.69 284.12 404.1 284.39 410.5 285.53 416.86 287.47 423.35 289.64 429.9 292.57 436.5 296.18 443.31 299.97 450.25 304.38 457.27 309.31 464.52 314.37 471.86 319.9 479.13 325.77 486.52 331.73 493.71 337.99 500.47 344.45 507.03 350.95 512.89 357.61 517.74 364.31 521.99 371.04 524.94 377.79 526.34 384.46 526.82 391.14 525.64 397.41 522.97 403.25 519.53 409.08 514.84 414.48 509.16 419.43 503.06 424.4 496.25 428.95 488.99 433.06 481.65 437.24 474.07 441.04 466.43 444.46 458.89 448.03 451.37 451.3 443.96 454.26 436.71 457.46 429.54 460.43 422.51 463.16 415.59 466.19 408.74 469.05 401.99 471.67 395.29 474.62 388.63 477.34 382.09 479.75 375.55 482.44 369.41 484.62 363.72 486.25 355.43 488.56 341.45 489.85 335.92 488.67 327.73 482.65 320.98 466.37 320.3 458.67 319.66 453.31 319.31 447.44 319.22 441.14 318.62 434.83 318.17 428.11 317.88 421.07 317.01 414.01 316.37 406.97 315.96 400.01 315.14 393.04 314.71 386.15 314.72 379.4 314.53 372.63 314.92 365.98 315.92 359.51 316.9 353.01 318.57 346.68 320.91 340.6 323.33 334.47 326.45 328.59 330.2 323.04 334.04 317.48 338.49 312.27 343.45 307.52 348.47 302.8 353.95 298.59 359.81 295 365.68 291.52 371.9 288.72 378.38 286.73" stroke-dasharray="1 8" transform="rotate(68.68, 400, 400)" opacity="0.35"></path><path d="M381.16 297.45C392.76 294.38 404.72 294.56 416.69 297.56 429.02 301.26 441.83 307.59 454.69 315.83 468.07 324.53 481.28 334.83 493.01 345.98 503.9 357.28 511.72 369.19 514.76 380.99 514.94 392.8 509.86 403.33 500.9 412.35 490.43 421.47 477.67 429.3 464.13 435.77 450.68 442.73 437.05 448.79 423.97 453.81 411.17 459.78 398.64 465.02 386.87 469.03 375.1 473.9 365.06 476.71 357.01 477.35 348.97 478.06 342.97 476.15 339.18 471.78 335.14 467.15 332.89 460.06 332.29 450.94 330.53 441.67 329.58 430.57 329.46 418.09 327.48 405.61 326.59 392.99 326.97 380.8 326.57 368.57 328.3 356.68 332.18 345.7 336.15 334.64 342.49 324.5 350.84 315.99 359.31 307.64 369.55 301.19 381.16 297.45" stroke-dasharray="7 0" transform="rotate(72.72, 400, 400)" opacity="0.32"></path><path d="M385.59 308.18C395.85 305.39 406.71 305.39 417.74 307.78 429 310.71 440.7 315.88 452.27 322.75 464.05 329.96 475.43 338.62 485.27 348.11 494.32 357.71 500.72 367.95 503.18 378.23 503.49 388.51 499.51 397.85 492.28 405.99 483.8 414.22 473.15 421.47 461.57 427.59 449.87 434.1 437.78 439.84 426.08 444.61 414.52 450.08 403.25 454.79 392.8 458.31 382.35 462.47 373.59 464.78 366.65 465.22 357.04 464.93 346.19 453.49 344.2 442.73 342.33 434.85 341.26 425.31 341.04 414.45 339.35 403.59 338.72 392.48 339.22 381.68 339.01 370.87 340.55 360.32 343.87 350.58 347.12 340.81 352.38 331.89 359.43 324.42 366.52 317.12 375.32 311.48 385.59 308.18" stroke-dasharray="6 6" transform="rotate(76.76, 400, 400)" opacity="0.28"></path><path d="M391.28 318.9C400.2 316.43 409.79 316.28 419.6 318.13 429.53 320.37 439.78 324.5 449.77 330.08 459.78 335.91 469.24 343.01 477.24 350.9 484.55 358.87 489.66 367.48 491.6 376.28 491.99 385.06 488.97 393.19 483.3 400.41 476.66 407.71 468.08 414.27 458.53 419.92 448.76 425.86 438.46 431.14 428.35 435.53 418.3 440.42 408.46 444.57 399.36 447.58 390.26 451.07 382.66 452.92 376.66 453.18 368.25 452.82 358.21 443.18 355.97 434.16 354.06 427.57 352.91 419.52 352.62 410.27 351.21 401.01 350.82 391.47 351.45 382.15 351.45 372.83 352.9 363.71 355.81 355.28 358.55 346.88 362.96 339.22 368.92 332.82 374.85 326.58 382.35 321.76 391.28 318.9" stroke-dasharray="7 4" transform="rotate(80.80000000000001, 400, 400)" opacity="0.24"></path><path d="M397.74 329.62C405.29 327.5 413.45 327.25 421.79 328.63 430.18 330.27 438.75 333.45 446.97 337.84 455.1 342.4 462.65 348.05 468.9 354.42 474.6 360.85 478.54 367.89 480.02 375.2 480.45 382.51 478.24 389.4 473.97 395.63 468.98 401.93 462.35 407.69 454.81 412.74 447.03 417.99 438.66 422.68 430.3 426.58 421.94 430.81 413.68 434.35 405.98 436.86 395.04 440.41 379.29 440.8 374.32 437.51 369.98 432.78 365.12 416.68 364.21 405.71 363.07 398.05 362.89 390.11 363.6 382.31 363.83 374.54 365.24 366.92 367.81 359.88 370.19 352.88 373.92 346.51 378.93 341.21 383.89 336.03 390.18 332.02 397.74 329.62" stroke-dasharray="9 11" transform="rotate(84.84, 400, 400)" opacity="0.20"></path><path d="M404.4 340.35C416.67 337.04 430.84 339.53 443.64 346.04 456.02 352.98 465.66 363.35 468.44 375.05 468.6 386.74 461.32 397.57 450.26 406.04 438.43 415.02 424.57 422.36 412.07 426.14 399.56 430.73 390.52 430.54 385.38 426.21 379.37 421.88 375.92 413.1 375.79 400.93 373.54 388.76 374.97 375.66 379.68 364.41 383.73 353.33 392.11 344.37 404.4 340.35" stroke-dasharray="2 3" transform="rotate(88.88, 400, 400)" opacity="0.16"></path><path d="M410.67 351.07C420.01 348.47 430.47 350.09 439.61 354.7 448.41 359.54 455.05 367.03 456.86 375.82 457.22 384.6 452.41 393.02 444.76 399.78 436.6 406.81 426.58 412.54 417.1 415.41 407.61 418.74 400.34 418.43 395.83 415.07 390.77 411.75 387.68 405.18 387.37 396.13 385.82 387.06 387.29 377.31 391.22 368.96 394.7 360.73 401.32 354.08 410.67 351.07" stroke-dasharray="6 6" transform="rotate(92.92, 400, 400)" opacity="0.13"></path><path d="M416 361.8C428.62 358.37 442.62 365.74 445.27 377.49 445.43 389.23 433.38 401.03 420.63 404.69 407.87 409.14 399.09 403.45 398.95 391.46 396.56 379.46 403.38 365.96 416 361.8" stroke-dasharray="1 2" transform="rotate(96.96, 400, 400)" opacity="0.09"></path></g></svg>