<svg xmlns="http://www.w3.org/2000/svg" version="1.1" xmlns:xlink="http://www.w3.org/1999/xlink" xmlns:svgjs="http://svgjs.dev/svgjs" viewBox="0 0 800 800"><defs><linearGradient x1="50%" y1="0%" x2="50%" y2="100%" id="ccchaos-grad"><stop stop-color="hsl(251, 88%, 56%)" stop-opacity="1" offset="0%"></stop><stop stop-color="hsl(59, 91%, 54%)" stop-opacity="1" offset="100%"></stop></linearGradient></defs><g stroke-width="2" stroke="url(#ccchaos-grad)" fill="none" stroke-linecap="round"><path d="M382.92 109.32C392.39 112.43 401.9 116.09 411.44 120.12 421 123.95 430.61 127.88 440.27 131.81 449.98 135.21 459.78 138.49 469.65 141.6 479.62 144.1 489.71 146.46 499.91 148.72 510.22 150.49 520.67 152.31 531.23 154.24 541.91 155.93 552.67 157.92 563.47 160.29 574.32 162.67 585.13 165.58 595.79 169.05 606.35 172.74 616.63 177.08 626.48 182.07 635.98 187.37 644.86 193.33 652.95 199.9 660.43 206.78 666.91 214.24 672.26 222.19 676.78 230.41 680.04 239.06 681.97 248.06 683.06 257.26 682.86 266.74 681.41 276.43 679.39 286.24 676.38 296.21 672.55 306.26 668.7 316.38 664.47 326.56 660.11 336.72 656.42 346.92 653.08 357.08 650.31 367.16 648.8 377.25 648.17 387.24 648.52 397.07 650.33 406.89 653 416.32 656.37 425.31 660.77 434.29 665.43 442.84 670.09 450.93 675.06 459.01 679.53 466.63 683.27 473.82 686.63 481.01 688.87 487.79 689.86 494.18 690.04 500.64 688.81 506.8 686.2 512.7 682.65 518.8 677.77 524.78 671.68 530.71 664.81 537.02 656.92 543.46 648.19 550.11 638.96 557.32 629.13 564.89 618.86 572.89 608.38 581.55 597.66 590.69 586.82 600.31 576 610.5 565.18 621.04 554.43 631.79 543.83 642.77 533.33 653.64 522.99 664.16 512.82 674.3 502.78 683.61 492.88 691.8 483.13 698.95 473.47 704.55 463.9 708.37 454.42 710.73 444.99 711.15 435.59 709.6 426.24 706.72 416.89 702.14 407.53 696.1 398.18 689.49 388.81 682.09 379.42 674.29 370.04 667.07 360.85 660.38 351.88 654.53 342.9 650.12 334.15 646.85 325.65 644.77 317.15 644.27 308.9 644.78 300.94 646.09 292.99 648.5 285.33 651.22 277.98 653.96 270.63 657.02 263.6 659.55 256.89 661.34 250.16 662.74 243.75 663.02 237.64 662.08 231.48 660.36 225.6 657.31 220 652.98 214.29 647.8 208.81 641.44 203.56 634.04 198.13 625.97 192.88 617.06 187.82 607.49 182.53 597.52 177.38 587.08 172.39 576.35 167.16 565.44 162.08 554.39 157.17 543.29 152.06 532.19 147.14 521.12 142.46 510.15 137.65 499.25 133.14 488.46 128.98 477.84 124.81 467.28 121.06 456.86 117.81 446.59 114.65 436.37 112.07 426.28 110.11 416.33 108.35 406.41 107.28 396.59 106.94 386.91 106.88 377.23 107.56 367.91 108.95 358.93 110.58 349.95 112.9 341.33 115.83 333.07 118.92 324.8 122.58 316.9 126.73 309.37 130.93 301.82 135.55 294.64 140.53 287.84 145.45 280.98 150.66 274.46 156.11 268.27 161.41 261.98 166.89 255.95 172.55 250.17 177.98 244.19 183.57 238.37 189.29 232.68 194.78 226.69 200.42 220.73 206.21 214.76 211.8 208.42 217.57 202.01 223.54 195.53 229.35 188.65 235.39 181.69 241.68 174.69 247.87 167.38 254.33 160.11 261.08 152.98 267.77 145.75 274.76 138.82 282.05 132.33 289.31 126.04 296.88 120.4 304.75 115.53 312.6 111.16 320.76 107.73 329.19 105.35 337.61 103.62 346.31 102.97 355.27 103.42 364.22 104.44 373.44 106.43 382.91 109.31" stroke-dasharray="9 1" transform="rotate(0, 400, 400)" opacity="1.00"></path><path d="M386.53 120.18C395.72 123.26 404.98 126.87 414.29 130.84 423.63 134.63 433.05 138.55 442.54 142.48 452.07 145.94 461.71 149.29 471.43 152.49 481.23 155.11 491.15 157.6 501.16 159.99 511.26 161.88 521.46 163.79 531.73 165.77 542.06 167.47 552.43 169.4 562.77 171.64 573.09 173.84 583.31 176.48 593.3 179.62 603.14 182.89 612.62 186.75 621.61 191.19 630.23 195.89 638.19 201.2 645.35 207.08 651.91 213.25 657.5 219.96 662 227.18 665.76 234.64 668.35 242.54 669.72 250.82 670.36 259.28 669.86 268.06 668.25 277.07 666.18 286.21 663.27 295.53 659.66 304.97 656.09 314.49 652.23 324.09 648.28 333.7 644.97 343.35 642 352.99 639.55 362.56 638.25 372.15 637.75 381.65 638.11 391.01 639.79 400.38 642.24 409.37 645.32 417.97 649.34 426.57 653.61 434.77 657.9 442.57 662.52 450.37 666.72 457.78 670.28 464.82 673.58 471.89 675.88 478.63 677.09 485.08 677.61 491.62 676.86 497.95 674.84 504.12 672 510.52 667.91 516.87 662.67 523.26 656.7 530.03 649.73 536.96 641.9 544.14 633.57 551.83 624.59 559.87 615.1 568.29 605.36 577.28 595.29 586.66 585.02 596.39 574.71 606.56 564.31 616.94 553.92 627.39 543.61 637.92 533.35 648.21 523.2 658.03 513.17 667.38 503.25 675.86 493.45 683.19 483.78 689.5 474.2 694.31 464.72 697.44 455.34 699.24 446.01 699.25 436.75 697.46 427.54 694.49 418.37 689.99 409.22 684.17 400.1 677.86 390.99 670.83 381.91 663.42 372.83 656.55 363.98 650.13 355.37 644.43 346.76 640.03 338.38 636.64 330.27 634.31 322.16 633.43 314.31 633.48 306.74 634.3 299.17 636.18 291.89 638.41 284.9 640.75 277.9 643.48 271.2 645.84 264.79 647.61 258.35 649.15 252.19 649.75 246.32 649.3 240.37 648.22 234.67 645.95 229.22 642.51 223.64 638.33 218.26 633.03 213.09 626.71 207.74 619.75 202.54 611.94 197.51 603.41 192.26 594.45 187.14 584.97 182.17 575.09 176.97 564.99 171.92 554.65 167.03 544.18 161.96 533.64 157.08 523.07 152.43 512.53 147.68 502 143.22 491.55 139.11 481.22 135 470.92 131.3 460.76 128.09 450.73 124.99 440.75 122.44 430.9 120.49 421.2 118.77 411.52 117.71 401.98 117.36 392.59 117.28 383.2 117.94 374.18 119.28 365.53 120.88 356.86 123.14 348.55 126 340.61 129.03 332.65 132.61 325.04 136.67 317.78 140.81 310.49 145.35 303.54 150.25 296.92 155.11 290.23 160.26 283.83 165.65 277.71 170.91 271.46 176.36 265.43 181.97 259.58 187.38 253.52 192.94 247.58 198.63 241.72 204.11 235.56 209.72 229.4 215.47 223.23 221.02 216.71 226.73 210.12 232.61 203.47 238.34 196.47 244.27 189.43 250.41 182.39 256.44 175.11 262.72 167.92 269.25 160.91 275.71 153.86 282.45 147.17 289.47 140.93 296.44 134.94 303.7 129.6 311.26 125.04 318.78 120.98 326.6 117.83 334.7 115.69 342.78 114.16 351.15 113.67 359.79 114.23 368.42 115.31 377.33 117.32 386.52 120.18" stroke-dasharray="10 7" transform="rotate(4.04, 400, 400)" opacity="0.96"></path><path d="M390.79 131.05C399.7 134.09 408.7 137.63 417.78 141.54 426.88 145.29 436.08 149.18 445.36 153.1 454.68 156.6 464.1 160.01 473.6 163.29 483.17 166.04 492.83 168.65 502.56 171.16 512.36 173.19 522.21 175.2 532.09 177.26 541.99 179 551.87 180.93 561.65 183.1 571.37 185.16 580.92 187.6 590.18 190.47 599.24 193.4 607.9 196.85 616.02 200.82 623.76 204.98 630.82 209.7 637.07 214.95 642.77 220.44 647.53 226.46 651.26 232.97 654.34 239.69 656.33 246.86 657.22 254.4 657.51 262.12 656.77 270.18 655.06 278.49 653.01 286.93 650.23 295.59 646.86 304.39 643.59 313.27 640.09 322.25 636.53 331.29 633.6 340.36 630.97 349.46 628.82 358.51 627.72 367.59 627.33 376.6 627.69 385.52 629.26 394.43 631.5 403.03 634.29 411.28 637.96 419.52 641.86 427.44 645.78 435.01 650.05 442.6 653.97 449.87 657.34 456.84 660.53 463.86 662.86 470.63 664.22 477.19 665.01 483.87 664.66 490.42 663.17 496.89 660.96 503.59 657.59 510.32 653.14 517.14 648.01 524.31 641.92 531.68 634.98 539.3 627.54 547.36 619.41 555.75 610.74 564.46 601.78 573.62 592.43 583.08 582.82 592.79 573.1 602.79 563.23 612.88 553.29 622.91 543.37 632.89 533.46 642.52 523.6 651.59 513.82 660.14 504.11 667.77 494.51 674.25 484.99 679.76 475.57 683.83 466.25 686.33 457 687.62 447.83 687.26 438.75 685.27 429.71 682.25 420.72 677.85 411.81 672.25 402.91 666.25 394.06 659.58 385.27 652.56 376.47 646.02 367.94 639.87 359.66 634.34 351.38 629.97 343.35 626.49 335.6 623.95 327.83 622.73 320.33 622.35 313.11 622.7 305.87 624.07 298.91 625.82 292.24 627.73 285.53 630.1 279.1 632.22 272.95 633.89 263.77 635.86 246.55 634.8 238.43 631.33 232.95 628.03 227.66 623.69 222.54 618.38 217.24 612.47 212.09 605.72 207.08 598.24 201.86 590.31 196.76 581.81 191.8 572.86 186.64 563.64 181.61 554.11 176.75 544.37 171.72 534.51 166.89 524.54 162.3 514.54 157.61 504.51 153.21 494.51 149.16 484.57 145.12 474.65 141.48 464.82 138.32 455.12 135.28 445.44 132.78 435.88 130.87 426.47 129.18 417.08 128.13 407.82 127.77 398.73 127.69 389.63 128.32 380.9 129.61 372.53 131.16 364.14 133.35 356.11 136.13 348.42 139.09 340.71 142.58 333.33 146.55 326.28 150.6 319.18 155.06 312.38 159.87 305.87 164.65 299.27 169.72 292.92 175.04 286.8 180.24 280.53 185.64 274.44 191.21 268.49 196.6 262.31 202.13 256.22 207.79 250.18 213.25 243.85 218.84 237.51 224.56 231.15 230.08 224.47 235.75 217.74 241.57 210.97 247.23 203.91 253.08 196.84 259.11 189.82 265.02 182.61 271.15 175.55 277.52 168.71 283.79 161.9 290.32 155.46 297.11 149.52 303.84 143.85 310.85 138.83 318.13 134.59 325.38 130.83 332.9 127.97 340.71 126.06 348.49 124.74 356.56 124.4 364.91 125.06 373.24 126.2 381.87 128.22 390.78 131.04" stroke-dasharray="1 3" transform="rotate(8.08, 400, 400)" opacity="0.92"></path><path d="M395.49 141.91C404.13 144.9 412.87 148.38 421.69 152.21 430.53 155.91 439.47 159.76 448.49 163.67 457.54 167.19 466.69 170.65 475.91 174 485.17 176.86 494.51 179.6 503.88 182.23 513.29 184.4 522.71 186.54 532.11 188.69 541.5 190.51 550.8 192.47 559.96 194.61 569.02 196.6 577.84 198.91 586.33 201.56 594.59 204.23 602.4 207.34 609.66 210.91 616.54 214.61 622.73 218.81 628.13 223.51 633.02 228.38 637.03 233.76 640.07 239.6 642.54 245.62 644.03 252.08 644.53 258.92 644.53 265.92 643.62 273.26 641.88 280.87 639.88 288.61 637.26 296.59 634.15 304.74 631.19 312.96 628.04 321.33 624.86 329.78 622.29 338.26 619.99 346.8 618.12 355.34 617.21 363.9 616.91 372.44 617.28 380.92 618.73 389.41 620.77 397.63 623.3 405.56 626.63 413.5 630.16 421.17 633.73 428.57 637.66 435.98 641.28 443.16 644.45 450.11 647.5 457.13 649.8 463.97 651.26 470.68 652.26 477.52 652.25 484.3 651.21 491.06 649.54 498.05 646.82 505.12 643.09 512.31 638.75 519.82 633.49 527.53 627.4 535.47 620.82 543.8 613.55 552.39 605.71 561.24 597.56 570.43 588.98 579.83 580.07 589.37 571.01 599.07 561.74 608.75 552.35 618.25 542.93 627.61 533.45 636.53 523.97 644.81 514.54 652.54 505.14 659.33 495.81 665 486.54 669.73 477.35 673.12 468.25 675.04 459.2 675.87 450.24 675.2 441.37 673.04 432.53 670 423.77 665.71 415.1 660.34 406.44 654.64 397.84 648.34 389.33 641.69 380.82 635.49 372.58 629.6 364.61 624.25 356.63 619.93 348.92 616.38 341.48 613.66 334.02 612.14 326.82 611.39 319.91 611.3 312.96 612.18 306.28 613.44 299.87 614.92 293.41 616.89 287.21 618.72 281.27 620.23 272.37 622.19 255.56 622.06 247.57 619.5 242.17 616.95 236.94 613.46 231.86 609.06 226.6 604.14 221.47 598.39 216.48 591.9 211.28 585 206.21 577.49 201.27 569.48 196.14 561.19 191.15 552.53 186.33 543.59 181.36 534.5 176.58 525.23 172.04 515.86 167.43 506.44 163.11 496.97 159.13 487.52 155.17 478.07 151.61 468.66 148.52 459.35 145.55 450.04 143.1 440.84 141.23 431.76 139.58 422.69 138.55 413.74 138.19 404.94 138.1 396.15 138.69 387.69 139.94 379.58 141.43 371.46 143.55 363.66 146.24 356.18 149.11 348.68 152.5 341.47 156.36 334.56 160.31 327.59 164.66 320.88 169.37 314.43 174.06 307.87 179.05 301.52 184.28 295.35 189.42 289.03 194.76 282.84 200.26 276.76 205.62 270.46 211.12 264.21 216.74 258 222.18 251.51 227.75 245.02 233.44 238.5 238.94 231.71 244.58 224.88 250.35 218.05 255.97 210.98 261.75 203.94 267.7 196.99 273.52 189.92 279.54 183.04 285.77 176.42 291.9 169.88 298.26 163.74 304.86 158.11 311.4 152.78 318.19 148.1 325.23 144.18 332.23 140.73 339.51 138.15 347.05 136.48 354.56 135.35 362.36 135.16 370.43 135.9 378.49 137.1 386.84 139.12 395.48 141.91" stroke-dasharray="8 6" transform="rotate(12.12, 400, 400)" opacity="0.89"></path><path d="M400.41 152.78C408.77 155.71 417.23 159.11 425.77 162.86 434.32 166.5 442.97 170.3 451.69 174.18 460.43 177.71 469.25 181.2 478.12 184.62 487.01 187.57 495.95 190.43 504.89 193.18 513.84 195.49 522.76 197.76 531.61 200.03 540.41 201.95 549.09 203.97 557.56 206.13 565.91 208.1 573.98 210.32 581.67 212.83 589.13 215.3 596.11 218.15 602.52 221.4 608.57 224.71 613.94 228.48 618.56 232.69 624.38 239.43 630.96 255.34 631.68 264.42 631.46 270.73 630.45 277.38 628.72 284.33 626.82 291.38 624.39 298.69 621.55 306.2 618.9 313.77 616.09 321.52 613.28 329.39 611.04 337.29 609.06 345.28 607.44 353.32 606.7 361.37 606.5 369.44 606.86 377.52 608.21 385.59 610.06 393.46 612.33 401.11 615.35 408.77 618.54 416.23 621.76 423.48 625.35 430.77 628.68 437.88 631.62 444.84 634.5 451.87 636.75 458.8 638.26 465.66 639.4 472.65 639.66 479.64 638.99 486.66 637.8 493.89 635.64 501.23 632.56 508.7 628.94 516.45 624.45 524.39 619.16 532.54 613.41 540.98 606.98 549.64 599.97 558.49 592.63 567.57 584.84 576.77 576.67 586 568.33 595.29 559.72 604.45 550.94 613.34 542.08 622.01 533.12 630.17 524.12 637.65 515.11 644.55 506.1 650.53 497.13 655.41 488.19 659.43 479.3 662.18 470.48 663.57 461.71 663.99 453 663.05 444.38 660.78 435.8 657.74 427.29 653.58 418.87 648.45 410.47 643.06 402.15 637.1 393.91 630.83 385.68 624.95 377.72 619.34 370.04 614.17 362.35 609.92 354.92 606.33 347.75 603.47 340.57 601.68 333.65 600.58 326.99 600.09 320.29 600.5 313.84 601.31 307.65 602.34 301.41 603.91 295.4 605.41 289.62 606.69 280.94 608.52 264.45 608.98 256.57 607.12 251.23 605.21 246.03 602.44 240.98 598.84 235.76 594.8 230.65 589.96 225.67 584.42 220.51 578.49 215.47 571.95 210.55 564.87 205.46 557.52 200.52 549.75 195.74 541.65 190.84 533.38 186.14 524.88 181.67 516.21 177.15 507.46 172.92 498.61 169.02 489.73 165.16 480.82 161.69 471.91 158.67 463.04 155.78 454.17 153.4 445.37 151.58 436.66 149.97 427.95 148.96 419.34 148.6 410.85 148.5 402.36 149.07 394.18 150.26 386.32 151.69 378.44 153.73 370.85 156.32 363.55 159.09 356.22 162.37 349.15 166.11 342.34 169.95 335.46 174.18 328.81 178.76 322.36 183.35 315.81 188.23 309.42 193.35 303.19 198.41 296.79 203.67 290.5 209.11 284.28 214.41 277.87 219.86 271.48 225.44 265.11 230.86 258.51 236.4 251.9 242.05 245.28 247.53 238.42 253.14 231.56 258.88 224.72 264.46 217.71 270.19 210.76 276.07 203.94 281.83 197.07 287.76 190.41 293.87 184.06 299.89 177.82 306.12 172.01 312.56 166.72 318.93 161.74 325.54 157.41 332.38 153.82 339.17 150.69 346.23 148.37 353.53 146.93 360.8 146 368.35 145.95 376.16 146.77 383.96 148.01 392.04 150.03 400.4 152.77" stroke-dasharray="8 6" transform="rotate(16.16, 400, 400)" opacity="0.85"></path><path d="M405.31 163.64C413.38 166.51 421.54 169.83 429.77 173.49 438.01 177.05 446.33 180.79 454.7 184.63 463.09 188.15 471.52 191.67 479.98 195.13 488.45 198.17 496.93 201.13 505.37 204 513.8 206.45 522.16 208.85 530.4 211.24 538.58 213.28 546.58 215.39 554.35 217.6 561.96 219.6 569.26 221.79 576.16 224.22 582.82 226.56 589 229.22 594.61 232.22 602.18 236.94 613.25 248.48 616.53 255.33 618.4 262.74 617.81 279.59 615.61 288.91 613.84 295.32 611.62 301.99 609.06 308.88 606.71 315.84 604.24 322.99 601.79 330.29 599.86 337.62 598.17 345.08 596.79 352.63 596.21 360.19 596.08 367.82 596.45 375.5 597.69 383.18 599.37 390.73 601.4 398.12 604.11 405.52 606.97 412.79 609.87 419.92 613.12 427.08 616.15 434.15 618.85 441.12 621.56 448.16 623.71 455.17 625.22 462.15 626.46 469.26 626.91 476.41 626.55 483.62 625.75 491.02 624.09 498.53 621.59 506.18 618.61 514.06 614.81 522.11 610.27 530.32 605.31 538.75 599.68 547.34 593.47 556.03 586.94 564.87 579.94 573.74 572.53 582.54 564.93 591.32 557.03 599.88 548.9 608.09 540.68 616.02 532.3 623.4 523.82 630.07 515.33 636.17 506.78 641.36 498.23 645.51 489.7 648.85 481.17 651.02 472.7 651.94 464.26 652.01 455.87 650.84 447.55 648.49 439.26 645.47 431.04 641.45 422.9 636.58 414.78 631.48 406.74 625.88 398.79 619.96 390.84 614.41 383.16 609.07 375.74 604.09 368.32 599.93 361.15 596.33 354.24 593.35 347.31 591.34 340.63 589.93 334.19 589.07 327.71 589.05 321.47 589.41 315.46 590.02 306.46 591.73 289.4 594.9 281.28 595.64 273.16 595.64 257.48 591.8 249.87 587.8 244.68 584.52 239.6 580.5 234.64 575.82 229.52 570.79 224.51 565.15 219.63 558.98 214.6 552.54 209.71 545.66 205 538.41 200.18 530.98 195.56 523.27 191.18 515.34 186.77 507.32 182.64 499.14 178.84 490.88 175.09 482.57 171.72 474.21 168.79 465.84 165.99 457.47 163.69 449.11 161.92 440.81 160.36 432.5 159.38 424.25 159.02 416.09 158.91 407.92 159.44 400.02 160.57 392.39 161.94 384.75 163.89 377.36 166.37 370.22 169.04 363.04 172.2 356.09 175.8 349.35 179.51 342.54 183.6 335.92 188.04 329.47 192.51 322.91 197.27 316.48 202.27 310.17 207.23 303.71 212.4 297.32 217.74 290.99 222.98 284.48 228.36 277.99 233.88 271.51 239.26 264.84 244.76 258.16 250.36 251.49 255.82 244.64 261.4 237.81 267.1 231.03 272.65 224.14 278.33 217.35 284.15 210.72 289.85 204.08 295.71 197.7 301.73 191.65 307.65 185.76 313.77 180.3 320.07 175.37 326.3 170.76 332.75 166.79 339.41 163.53 346.02 160.7 352.87 158.66 359.96 157.44 367.01 156.69 374.32 156.76 381.87 157.66 389.41 158.93 397.22 160.94 405.3 163.64" stroke-dasharray="9 11" transform="rotate(20.200000000000003, 400, 400)" opacity="0.81"></path><path d="M409.95 174.51C417.73 177.3 425.57 180.53 433.46 184.09 441.36 187.58 449.31 191.24 457.29 195.02 465.28 198.53 473.29 202.04 481.29 205.53 489.28 208.64 497.25 211.69 505.15 214.66 513.01 217.25 520.77 219.78 528.37 222.29 535.89 224.47 543.2 226.69 550.23 228.98 557.11 231.04 563.65 233.25 569.78 235.64 578.38 239.19 592.45 247.63 597.68 252.67 601.69 258.12 605.67 270.97 605.66 278.35 605.2 283.45 604.15 288.89 602.57 294.63 600.96 300.44 598.96 306.52 596.69 312.84 594.64 319.21 592.5 325.8 590.38 332.57 588.75 339.36 587.32 346.31 586.17 353.4 585.72 360.49 585.67 367.7 586.03 375.01 587.18 382.32 588.69 389.56 590.5 396.7 592.92 403.86 595.47 410.94 598.05 417.95 600.98 425 603.72 432 606.18 438.96 608.68 445.99 610.71 453.03 612.18 460.09 613.46 467.26 614.06 474.5 613.93 481.82 613.46 489.29 612.21 496.88 610.2 504.59 607.79 512.48 604.63 520.5 600.77 528.64 596.54 536.92 591.66 545.3 586.21 553.71 580.47 562.18 574.24 570.6 567.59 578.88 560.74 587.05 553.56 594.95 546.12 602.44 538.57 609.61 530.81 616.2 522.93 622.07 515 627.39 506.97 631.83 498.91 635.28 490.84 638 482.75 639.65 474.68 640.15 466.63 639.92 458.6 638.58 450.63 636.17 442.67 633.2 434.77 629.34 426.94 624.72 419.13 619.92 411.38 614.66 403.72 609.1 396.06 603.87 388.65 598.79 381.5 594.02 374.34 589.95 367.42 586.37 360.74 583.31 354.04 581.11 347.57 579.43 341.33 578.25 335.05 577.84 328.98 577.78 323.13 577.97 314.35 579.08 297.62 581.42 289.61 582.04 281.59 582.16 266.04 579.28 258.47 576.07 253.32 573.42 248.28 570.11 243.35 566.18 238.27 561.95 233.31 557.15 228.48 551.81 223.53 546.24 218.72 540.21 214.09 533.79 209.37 527.19 204.85 520.28 200.58 513.11 196.28 505.83 192.27 498.35 188.58 490.74 184.95 483.07 181.7 475.3 178.87 467.47 176.17 459.63 173.95 451.75 172.25 443.88 170.74 436.01 169.79 428.15 169.43 420.32 169.32 412.49 169.81 404.88 170.89 397.5 172.18 390.1 174.04 382.9 176.41 375.91 178.96 368.88 181.98 362.04 185.43 355.37 189 348.63 192.95 342.04 197.23 335.58 201.56 329.03 206.17 322.57 211.04 316.19 215.87 309.69 220.92 303.24 226.15 296.83 231.3 290.27 236.6 283.72 242.03 277.19 247.35 270.51 252.79 263.83 258.34 257.18 263.76 250.4 269.3 243.67 274.94 237.02 280.45 230.31 286.09 223.73 291.85 217.35 297.49 211.01 303.28 204.95 309.21 199.24 315.06 193.71 321.07 188.63 327.24 184.08 333.35 179.85 339.65 176.23 346.15 173.3 352.59 170.78 359.25 168.99 366.12 167.99 372.97 167.41 380.04 167.61 387.34 168.57 394.63 169.87 402.17 171.87 409.94 174.5" stroke-dasharray="2 1" transform="rotate(24.24, 400, 400)" opacity="0.77"></path><path d="M414.11 185.37C421.57 188.09 429.07 191.22 436.6 194.67 444.13 198.07 451.68 201.65 459.23 205.35 466.79 208.82 474.33 212.33 481.83 215.82 489.32 218.99 496.74 222.1 504.05 225.17 511.33 227.87 518.46 230.53 525.4 233.17 532.25 235.48 538.86 237.82 545.17 240.21 554.23 243.49 570.04 250.53 576.56 254.47 582.11 258.58 589.77 268.27 591.79 273.92 592.79 279.96 591.58 293.73 589.63 301.43 588.19 306.7 586.43 312.25 584.44 318.05 582.68 323.89 580.86 329.95 579.05 336.23 577.7 342.52 576.52 349 575.57 355.65 575.25 362.31 575.26 369.12 575.62 376.07 576.67 383.03 578.02 389.97 579.62 396.87 581.78 403.78 584.03 410.68 586.32 417.55 588.92 424.46 591.37 431.37 593.59 438.28 595.87 445.26 597.75 452.28 599.16 459.35 600.44 466.51 601.12 473.75 601.17 481.07 600.95 488.52 600.04 496.07 598.46 503.71 596.54 511.48 593.93 519.35 590.68 527.28 587.11 535.29 582.93 543.33 578.2 551.33 573.19 559.33 567.71 567.21 561.8 574.89 555.7 582.4 549.24 589.59 542.5 596.32 535.63 602.72 528.54 608.52 521.27 613.62 513.95 618.19 506.49 621.93 498.96 624.74 491.4 626.9 483.8 628.08 476.18 628.23 468.56 627.73 460.94 626.25 453.36 623.83 445.78 620.93 438.23 617.24 430.74 612.87 423.26 608.37 415.83 603.44 408.47 598.23 401.11 593.31 393.99 588.51 387.1 583.95 380.19 580 373.52 576.45 367.06 573.34 360.58 570.98 354.31 569.08 348.25 567.61 339.2 566.62 321.94 566.71 313.7 567.27 305.5 568.14 289.67 568.64 282 567.85 274.27 566.37 259.16 560.27 251.77 555.61 246.77 552.08 241.87 548.01 237.12 543.43 232.26 538.65 227.54 533.41 223.01 527.77 218.41 521.97 214.01 515.83 209.86 509.39 205.7 502.86 201.82 496.09 198.26 489.13 194.77 482.12 191.64 474.96 188.92 467.69 186.33 460.41 184.2 453.04 182.56 445.63 181.12 438.21 180.2 430.76 179.85 423.29 179.73 415.82 180.19 408.52 181.2 401.38 182.42 394.24 184.18 387.25 186.42 380.41 188.85 373.55 191.73 366.83 195.02 360.23 198.43 353.58 202.22 347.04 206.33 340.59 210.5 334.06 214.95 327.6 219.65 321.2 224.35 314.7 229.26 308.23 234.35 301.8 239.39 295.24 244.58 288.7 249.91 282.19 255.14 275.56 260.5 268.95 265.97 262.4 271.33 255.76 276.8 249.19 282.37 242.74 287.84 236.27 293.41 229.97 299.1 223.89 304.69 217.89 310.4 212.19 316.24 206.86 322 201.72 327.9 197.03 333.96 192.87 339.95 189.01 346.11 185.75 352.44 183.15 358.72 180.92 365.2 179.39 371.86 178.59 378.49 178.18 385.33 178.48 392.37 179.5 399.4 180.83 406.65 182.8 414.1 185.37" stroke-dasharray="3 5" transform="rotate(28.28, 400, 400)" opacity="0.73"></path><path d="M417.6 196.24C424.72 198.87 431.86 201.9 438.99 205.23 446.12 208.52 453.25 212.01 460.35 215.62 467.44 219.05 474.49 222.52 481.46 226 488.42 229.2 495.27 232.37 501.99 235.5 508.65 238.3 515.15 241.08 521.43 243.83 527.61 246.28 533.53 248.74 539.15 251.23 547.17 254.66 560.96 261.81 566.53 265.69 574.4 274.21 579.84 289.54 579.52 295.67 578.56 302.13 574.79 316.52 572.33 324.41 570.85 329.77 569.32 335.37 567.8 341.2 566.71 347.03 565.75 353.08 564.99 359.33 564.79 365.57 564.85 372.01 565.2 378.62 566.17 385.24 567.37 391.88 568.78 398.54 570.68 405.2 572.66 411.89 574.66 418.6 576.96 425.34 579.13 432.12 581.1 438.93 583.16 445.8 584.88 452.73 586.19 459.72 587.42 466.79 588.14 473.93 588.32 481.16 588.28 488.46 587.65 495.86 586.41 503.31 584.9 510.85 582.78 518.43 580.07 526.03 577.08 533.66 573.52 541.25 569.45 548.75 565.14 556.19 560.36 563.46 555.16 570.46 549.77 577.27 544.02 583.72 537.98 589.69 531.8 595.32 525.37 600.36 518.75 604.72 512.05 608.59 505.19 611.67 498.22 613.9 491.22 615.56 484.13 616.33 477 616.17 469.86 615.47 462.69 613.89 455.53 611.47 448.36 608.66 441.2 605.16 434.08 601.05 426.95 596.84 419.86 592.24 412.82 587.37 405.77 582.76 398.94 578.22 392.31 573.88 385.67 570.06 379.23 566.57 373 563.44 366.73 560.97 360.66 558.88 354.77 557.17 345.97 555.68 329.11 554.65 321.02 554.7 312.96 555.13 297.34 555.19 289.75 554.46 282.11 553.23 267.18 548.18 259.9 544.28 254.98 541.33 250.18 537.88 245.52 533.96 240.77 529.87 236.17 525.34 231.76 520.41 227.3 515.35 223.05 509.93 219.03 504.21 215.03 498.39 211.3 492.3 207.88 485.99 204.53 479.63 201.54 473.08 198.94 466.38 196.47 459.66 194.43 452.81 192.87 445.87 191.49 438.93 190.61 431.9 190.26 424.81 190.14 417.72 190.56 410.74 191.5 403.87 192.65 397 194.3 390.24 196.42 383.58 198.71 376.91 201.44 370.32 204.56 363.83 207.81 357.3 211.41 350.83 215.34 344.44 219.33 337.98 223.6 331.56 228.12 325.19 232.65 318.74 237.4 312.32 242.33 305.92 247.23 299.44 252.28 292.98 257.48 286.55 262.6 280.05 267.85 273.59 273.21 267.21 278.49 260.78 283.87 254.45 289.35 248.26 294.74 242.1 300.24 236.12 305.83 230.39 311.35 224.77 316.97 219.46 322.71 214.53 328.37 209.8 334.17 205.52 340.09 201.75 345.96 198.27 351.97 195.37 358.13 193.08 364.25 191.15 370.53 189.86 376.97 189.25 383.4 188.99 389.99 189.39 396.76 190.45 403.52 191.8 410.47 193.73 417.59 196.23" stroke-dasharray="7 8" transform="rotate(32.32, 400, 400)" opacity="0.70"></path><path d="M420.23 207.1C427 209.65 433.75 212.56 440.47 215.77 447.19 218.95 453.87 222.33 460.49 225.84 467.1 229.19 473.64 232.62 480.07 236.07 486.47 239.27 492.75 242.47 498.86 245.65 504.92 248.54 510.79 251.41 516.42 254.26 524.59 258.12 539.23 265.61 545.54 269.36 555.54 276.85 565.11 289.48 566.33 294.41 566.86 299.56 565.64 311.21 564.11 317.7 562.41 324.47 558.51 339.3 556.64 347.32 555.78 352.75 555.03 358.4 554.44 364.27 554.33 370.14 554.45 376.22 554.79 382.5 555.67 388.79 556.73 395.13 557.96 401.53 559.62 407.93 561.35 414.39 563.08 420.9 565.09 427.43 566.99 434.02 568.71 440.67 570.54 447.36 572.08 454.13 573.28 460.95 574.43 467.83 575.15 474.78 575.4 481.8 575.49 488.86 575.07 495.98 574.11 503.14 572.94 510.32 571.22 517.52 568.97 524.68 566.49 531.82 563.5 538.88 560.02 545.8 556.33 552.61 552.2 559.21 547.66 565.51 542.95 571.59 537.89 577.29 532.51 582.51 527.01 587.39 521.24 591.7 515.25 595.36 509.19 598.58 502.94 601.07 496.56 602.78 490.13 603.99 483.59 604.4 476.97 603.99 470.34 603.13 463.65 601.48 456.93 599.1 450.2 596.41 443.46 593.09 436.72 589.24 429.99 585.32 423.25 581.04 416.54 576.5 409.83 572.2 403.3 567.93 396.95 563.81 390.58 560.14 384.39 556.72 378.38 553.6 372.34 551.05 366.46 548.82 360.75 546.9 352.2 544.99 335.74 542.93 327.81 542.46 319.9 542.43 304.54 541.92 297.05 541.12 289.54 540 274.87 535.66 267.72 532.33 260.58 528.37 246.85 518.08 240.35 511.84 236.05 507.43 231.96 502.67 228.1 497.6 224.26 492.44 220.7 487 217.43 481.31 214.25 475.58 211.4 469.62 208.93 463.49 206.58 457.32 204.65 451 203.16 444.54 201.85 438.07 201.01 431.48 200.68 424.79 200.55 418.09 200.93 411.45 201.81 404.88 202.88 398.31 204.42 391.8 206.41 385.35 208.56 378.89 211.12 372.49 214.07 366.14 217.13 359.76 220.55 353.43 224.27 347.14 228.07 340.8 232.14 334.49 236.46 328.21 240.81 321.88 245.36 315.56 250.11 309.28 254.84 302.94 259.73 296.64 264.76 290.38 269.75 284.08 274.86 277.84 280.08 271.7 285.24 265.55 290.51 259.52 295.87 253.66 301.16 247.85 306.55 242.25 312.03 236.91 317.44 231.7 322.95 226.81 328.56 222.29 334.12 217.99 339.78 214.12 345.56 210.74 351.28 207.65 357.13 205.09 363.11 203.11 369.05 201.45 375.13 200.39 381.34 199.96 387.54 199.84 393.88 200.33 400.36 201.43 406.83 202.78 413.45 204.68 420.22 207.1" stroke-dasharray="8 9" transform="rotate(36.36, 400, 400)" opacity="0.66"></path><path d="M421.89 217.97C428.28 220.41 434.63 223.21 440.92 226.29 447.21 229.34 453.43 232.6 459.56 236 471.78 242.37 483.56 248.98 494.66 255.61 505.54 261.25 515.52 266.87 524.32 272.51 532.66 277.28 539.57 282.33 544.81 287.79 549.45 292.77 552.35 298.46 553.49 304.95 554.23 311.27 553.51 318.55 551.56 326.8 549.99 335.01 547.86 344.22 545.56 354.36 544.63 362.08 543.97 378.63 544.37 387.46 545.17 393.43 546.11 399.47 547.17 405.58 548.62 411.71 550.1 417.9 551.58 424.17 555.28 436.74 558.37 449.64 560.46 462.74 562.52 475.98 562.95 489.45 561.62 502.93 559.63 516.41 555.7 529.68 549.97 542.33 543.53 554.48 535.47 565.47 526.1 574.75 516.29 582.75 505.44 588.44 493.88 591.38 482.15 592.63 469.91 591.06 457.41 586.73 451.15 584.16 444.85 581.05 438.51 577.45 432.18 573.81 425.83 569.85 419.47 565.64 413.11 561.63 406.9 557.63 400.83 553.73 394.76 550.23 388.83 546.91 383.04 543.83 371.42 539.15 360.31 535.47 349.73 532.66 338.98 531.51 328.64 530.58 318.75 529.46 308.59 529 298.77 527.63 289.37 525.06 279.68 522.37 270.38 518.14 261.63 512.38 252.71 506.25 244.46 498.63 237.07 489.71 229.82 480.53 223.67 470.24 218.89 459.06 216.68 453.44 214.86 447.63 213.45 441.65 212.21 435.66 211.42 429.51 211.09 423.23 210.96 416.94 211.31 410.66 212.11 404.41 213.1 398.16 214.53 391.93 216.38 385.73 220.54 373.31 226.21 360.96 233.14 348.74 240.38 336.4 248.64 324.11 257.69 311.98 266.74 299.71 276.43 287.64 286.57 275.96 296.53 264.38 306.92 253.44 317.64 243.49 328.15 234.11 339.04 226.1 350.28 219.87 361.37 214.68 372.91 211.56 384.84 210.73 390.79 210.74 396.86 211.31 403.03 212.43 409.2 213.78 415.49 215.63 421.88 217.96" stroke-dasharray="4 8" transform="rotate(40.400000000000006, 400, 400)" opacity="0.62"></path><path d="M422.49 228.83C434.5 233.58 446.21 239.48 457.5 246.1 468.73 252.29 479.43 258.79 489.38 265.38 499.14 271.11 507.97 276.88 515.64 282.67 522.92 287.67 528.87 292.9 533.31 298.45 537.28 303.5 539.72 309.14 540.64 315.44 541.32 321.52 540.77 328.44 539.18 336.22 538.01 343.92 536.37 352.54 534.56 362.05 533.97 371.54 533.73 381.93 533.96 393.21 535.79 404.48 537.93 416.15 540.16 428.07 543.34 440.04 545.96 452.32 547.73 464.77 549.59 477.27 550.05 489.91 548.99 502.43 547.46 514.84 544.21 526.9 539.36 538.22 533.92 548.98 526.98 558.53 518.79 566.39 510.19 573.1 500.55 577.66 490.14 579.74 479.56 580.4 468.39 578.58 456.85 574.36 445.28 569.35 433.43 562.66 421.46 554.77 409.49 547.57 397.94 540.53 386.87 534.11 375.76 529.33 365.06 525.34 354.8 522.08 344.4 520.31 334.35 518.77 324.7 517.15 314.83 516.24 305.28 514.64 296.12 512.1 286.75 509.6 277.78 505.81 269.35 500.71 260.83 495.36 252.97 488.67 245.96 480.75 239.11 472.63 233.32 463.4 228.83 453.24 224.82 443.01 222.31 431.95 221.51 420.22 221.41 408.48 223.08 396.64 226.35 384.84 230.2 373.01 235.48 361.16 241.96 349.4 248.75 337.56 256.54 325.77 265.11 314.14 273.73 302.49 282.99 291.07 292.71 280.12 302.31 269.35 312.34 259.27 322.68 250.21 332.87 241.73 343.41 234.59 354.23 229.14 364.95 224.64 376.03 222.06 387.42 221.56 398.76 222.04 410.48 224.48 422.48 228.83" stroke-dasharray="6 2" transform="rotate(44.44, 400, 400)" opacity="0.58"></path><path d="M422.01 239.69C433.2 244.22 444.02 249.83 454.32 256.14 464.58 262.13 474.23 268.46 483.1 274.95 491.8 280.72 499.58 286.58 506.25 292.47 512.6 297.66 517.73 303.05 521.51 308.7 524.94 313.86 527.06 319.5 527.85 325.69 528.55 331.63 528.2 338.28 526.98 345.68 526.2 352.98 525.01 361.11 523.64 370.06 523.35 378.97 523.29 388.75 523.54 399.37 525.17 409.99 526.99 421 528.82 432.24 531.5 443.52 533.69 455.06 535.14 466.69 536.75 478.32 537.17 489.98 536.29 501.4 535.09 512.65 532.4 523.43 528.28 533.37 523.71 542.75 517.76 550.9 510.62 557.44 503.14 562.96 494.64 566.51 485.34 567.86 475.87 568.05 465.76 566.06 455.19 562 444.59 557.32 433.62 551.16 422.41 543.91 411.21 537.25 400.31 530.63 389.78 524.44 379.22 519.63 368.97 515.43 359.09 511.81 349.1 509.5 339.4 507.41 330.05 505.3 320.54 503.92 311.32 502.02 302.48 499.39 293.5 496.92 284.92 493.4 276.87 488.76 268.8 484.01 261.36 478.06 254.76 470.98 248.35 463.76 242.94 455.48 238.76 446.26 235.02 436.98 232.68 426.84 231.92 415.95 231.8 405.07 233.33 393.98 236.32 382.83 239.86 371.68 244.73 360.45 250.73 349.27 257.05 338.07 264.34 326.91 272.38 315.94 280.51 305.03 289.28 294.39 298.5 284.26 307.68 274.39 317.27 265.24 327.16 257.1 336.95 249.54 347.06 243.27 357.41 238.57 367.68 234.74 378.25 232.64 389.03 232.45 399.79 233.1 410.82 235.53 422.01 239.69" stroke-dasharray="9 9" transform="rotate(48.48, 400, 400)" opacity="0.54"></path><path d="M420.47 250.56C430.82 254.85 440.73 260.15 450.08 266.13 459.38 271.87 468.04 278 475.91 284.32 483.64 290.08 490.47 295.95 496.26 301.89 501.82 307.23 506.26 312.74 509.51 318.46 512.54 323.74 514.42 329.41 515.18 335.52 515.94 341.38 515.82 347.83 514.97 354.93 514.55 361.9 513.77 369.6 512.8 378.04 512.76 386.44 512.85 395.62 513.13 405.57 514.57 415.53 516.09 425.82 517.56 436.3 519.78 446.8 521.55 457.49 522.68 468.18 524.02 478.84 524.35 489.41 523.57 499.64 522.6 509.66 520.34 519.12 516.82 527.7 512.97 535.74 507.88 542.58 501.69 547.9 495.22 552.35 487.77 555.04 479.51 555.78 471.1 555.58 462.01 553.51 452.41 549.64 442.77 545.31 432.69 539.68 422.29 533.05 411.89 526.91 401.68 520.73 391.73 514.82 381.77 510.05 372.03 505.71 362.59 501.83 353.07 499.07 343.79 496.5 334.81 493.94 325.73 492.09 316.92 489.85 308.48 487.06 299.95 484.51 291.81 481.12 284.21 476.79 276.63 472.45 269.66 467.07 263.51 460.69 257.55 454.22 252.54 446.76 248.67 438.4 245.21 429.99 243.05 420.72 242.34 410.69 242.2 400.66 243.57 390.37 246.3 379.96 249.51 369.57 253.97 359.06 259.48 348.59 265.31 338.14 272.05 327.74 279.52 317.57 287.12 307.49 295.34 297.74 304.01 288.53 312.68 279.61 321.76 271.42 331.13 264.23 340.44 257.58 350.04 252.15 359.83 248.18 369.59 244.97 379.57 243.33 389.7 243.4 399.82 244.2 410.11 246.59 420.47 250.56" stroke-dasharray="9 7" transform="rotate(52.52, 400, 400)" opacity="0.51"></path><path d="M417.94 261.42C427.44 265.46 436.46 270.43 444.88 276.07 453.26 281.52 460.99 287.39 467.95 293.5 474.79 299.16 480.79 304.98 485.84 310.89 490.71 316.3 494.6 321.89 497.45 327.65 500.16 333.01 501.89 338.7 502.69 344.75 503.54 350.55 503.66 356.84 503.16 363.67 503.07 370.37 502.65 377.7 502.03 385.65 502.2 393.56 502.42 402.16 502.71 411.43 503.98 420.7 505.23 430.23 506.37 439.88 508.18 449.53 509.56 459.28 510.39 468.95 511.44 478.55 511.64 487.97 510.9 496.98 510.07 505.74 508.13 513.9 505.1 521.17 501.84 527.93 497.48 533.57 492.11 537.81 486.53 541.31 480.03 543.26 472.74 543.51 465.32 543.03 457.21 540.94 448.55 537.3 439.85 533.33 430.66 528.21 421.09 522.18 411.51 516.57 402.03 510.83 392.72 505.23 383.4 500.57 374.24 496.19 365.3 492.13 356.32 489.03 347.53 486.06 339.01 483.12 330.43 480.83 322.1 478.26 314.13 475.27 306.12 472.57 298.49 469.19 291.39 465.06 284.33 460.98 277.88 456.03 272.19 450.21 266.71 444.34 262.11 437.59 258.57 430 255.4 422.38 253.41 413.95 252.75 404.77 252.6 395.59 253.82 386.13 256.27 376.53 259.16 366.96 263.2 357.27 268.22 347.61 273.53 338 279.71 328.47 286.58 319.19 293.59 310.05 301.21 301.26 309.27 293.03 317.36 285.1 325.86 277.89 334.62 271.64 343.37 265.89 352.39 261.27 361.56 257.98 370.72 255.34 380.06 254.12 389.49 254.42 398.91 255.33 408.43 257.67 417.94 261.42" stroke-dasharray="3 3" transform="rotate(56.56, 400, 400)" opacity="0.47"></path><path d="M414.54 272.29C423.19 276.06 431.32 280.69 438.86 285.94 446.37 291.08 453.24 296.65 459.38 302.49 465.43 307.98 470.7 313.67 475.12 319.48 479.42 324.89 482.86 330.47 485.4 336.21 487.88 341.61 489.54 347.28 490.41 353.24 491.38 358.97 491.73 365.11 491.55 371.67 491.76 378.12 491.65 385.09 491.34 392.56 491.68 400 492 408.01 492.3 416.57 493.4 425.13 494.41 433.86 495.27 442.62 496.69 451.38 497.72 460.13 498.25 468.73 499.03 477.24 499.07 485.48 498.33 493.26 497.55 500.8 495.85 507.7 493.21 513.74 488.54 521.61 474.37 530.54 465.13 531.09 458.63 530.41 451.44 528.35 443.69 524.97 435.9 521.37 427.6 516.76 418.87 511.32 410.14 506.22 401.41 500.94 392.8 495.69 384.17 491.19 375.64 486.84 367.29 482.71 358.91 479.36 350.69 476.1 342.71 472.86 334.7 470.19 326.92 467.31 319.49 464.12 312.06 461.22 304.99 457.8 298.43 453.79 291.95 449.87 286.03 445.23 280.84 439.85 275.85 434.48 271.67 428.33 268.46 421.44 265.58 414.53 263.78 406.89 263.17 398.55 263 390.22 264.07 381.61 266.26 372.88 268.83 364.17 272.44 355.37 276.96 346.61 281.74 337.93 287.33 329.34 293.57 321.04 299.97 312.88 306.94 305.1 314.33 297.87 321.79 290.94 329.64 284.71 337.73 279.37 345.85 274.49 354.2 270.63 362.7 267.97 371.19 265.86 379.83 265.01 388.5 265.51 397.18 266.5 405.9 268.76 414.54 272.29" stroke-dasharray="1 5" transform="rotate(60.599999999999994, 400, 400)" opacity="0.43"></path><path d="M410.45 283.15C418.23 286.64 425.51 290.92 432.22 295.77 438.9 300.56 444.98 305.78 450.38 311.29 455.73 316.54 460.37 322.02 464.27 327.64 468.09 332.96 471.17 338.45 473.5 344.09 475.81 349.45 477.43 355.04 478.39 360.86 479.48 366.49 480.05 372.45 480.16 378.73 480.61 384.92 480.78 391.51 480.71 398.5 481.19 405.45 481.58 412.86 481.88 420.69 482.83 428.52 483.63 436.42 484.24 444.26 485.32 452.09 486.03 459.83 486.31 467.33 486.81 474.75 486.69 481.83 485.91 488.42 484.37 497.66 477.2 511.78 471.53 516.06 464.93 518.5 448.02 516.75 437.97 512.67 431.06 509.44 423.62 505.32 415.74 500.45 407.86 495.87 399.93 491.04 392.04 486.18 384.16 481.9 376.32 477.66 368.62 473.55 360.91 470.06 353.32 466.6 345.95 463.16 338.58 460.2 331.43 457.07 324.6 453.7 317.8 450.62 311.35 447.14 305.37 443.19 299.49 439.36 294.14 434.96 289.46 429.96 284.97 424.98 281.21 419.36 278.34 413.1 275.76 406.84 274.14 399.93 273.58 392.42 273.41 384.91 274.33 377.18 276.26 369.34 278.51 361.54 281.71 353.67 285.71 345.87 289.97 338.15 294.96 330.57 300.55 323.28 306.3 316.14 312.58 309.38 319.27 303.17 326.04 297.22 333.17 291.94 340.55 287.48 347.96 283.4 355.59 280.26 363.34 278.17 371.11 276.54 378.99 276.01 386.87 276.65 394.77 277.7 402.66 279.87 410.45 283.15" stroke-dasharray="4 10" transform="rotate(64.64, 400, 400)" opacity="0.39"></path><path d="M405.85 294.02C412.78 297.21 419.23 301.11 425.16 305.55 431.06 309.95 436.41 314.78 441.17 319.9 445.88 324.85 449.98 330.04 453.44 335.4 458.26 343.18 464.81 359.22 466.67 367.55 467.87 373.01 468.63 378.72 468.99 384.68 469.64 390.56 470.01 396.74 470.15 403.21 470.73 409.66 471.17 416.44 471.47 423.52 472.28 430.59 472.89 437.63 473.29 444.55 474.07 451.44 474.5 458.17 474.54 464.6 474.65 473.94 472.17 490.02 469.35 496.27 465.78 501.29 455.11 506.21 448.09 505.87 443.15 505.01 437.62 503.18 431.56 500.4 425.47 497.53 418.88 493.9 411.86 489.59 404.83 485.5 397.71 481.15 390.6 476.69 383.49 472.68 376.4 468.64 369.41 464.63 362.42 461.11 355.54 457.57 348.85 454.01 342.17 450.86 335.7 447.56 329.53 444.09 323.4 440.86 317.61 437.33 312.25 433.45 307 429.69 302.23 425.48 298.07 420.8 294.08 416.17 290.76 411.01 288.22 405.33 285.94 399.66 284.5 393.46 284 386.76 283.82 380.06 284.6 373.2 286.27 366.28 288.22 359.39 291 352.47 294.5 345.67 298.22 338.94 302.61 332.37 307.54 326.1 312.63 319.98 318.2 314.23 324.15 309 330.2 304.01 336.57 299.62 343.18 295.99 349.83 292.66 356.69 290.16 363.65 288.59 370.64 287.37 377.71 287.11 384.78 287.87 391.86 288.94 398.92 290.99 405.85 294.02" stroke-dasharray="6 4" transform="rotate(68.68, 400, 400)" opacity="0.35"></path><path d="M400.97 304.88C413.14 310.74 423.58 318.9 431.94 328.35 440.22 337.34 446.43 347.32 450.46 357.76 454.67 367.6 457.14 378.22 458.03 389.41 459.88 400.36 460.89 412.28 461.05 424.88 462.8 437.49 463.49 449.59 462.97 460.48 463.19 471.1 461.43 480.01 457.59 486.33 453.72 491.82 447.46 494.24 439.01 493.14 430.43 491.28 419.76 486.36 407.4 478.72 395.03 471.78 382.25 463.92 369.78 455.93 357.37 449.42 345.32 442.55 334.33 435.32 323.57 428.94 314.08 421.42 306.68 412.64 299.89 404.04 295.55 393.75 294.41 381.93 294.31 370.1 297.51 357.94 303.34 346.24 309.91 334.8 318.75 324.22 329.05 315.46 339.7 307.44 351.53 301.76 363.78 299.22 376.14 297.76 388.79 299.56 400.97 304.88" stroke-dasharray="6 5" transform="rotate(72.72, 400, 400)" opacity="0.32"></path><path d="M396.04 315.75C406.57 320.96 415.6 328.2 422.89 336.65 430.15 344.82 435.72 353.97 439.5 363.58 443.5 372.79 446.07 382.65 447.29 392.89 449.27 402.95 450.42 413.67 450.64 424.7 452.05 435.72 452.38 446 451.61 454.98 450.52 467.3 439.85 480.75 429.82 480.36 422.45 478.66 413.28 474.43 402.58 467.86 391.88 461.82 380.77 454.78 369.9 447.44 359.1 441.17 348.62 434.44 339.09 427.4 329.8 421.03 321.64 413.79 315.31 405.66 309.51 397.7 305.8 388.5 304.83 378.21 304.67 367.93 307.34 357.57 312.25 347.81 317.76 338.24 325.25 329.59 334.05 322.59 343.15 316.16 353.33 311.79 363.89 310.07 374.57 309.14 385.51 310.96 396.04 315.75" stroke-dasharray="7 9" transform="rotate(76.76, 400, 400)" opacity="0.28"></path><path d="M391.3 326.61C400.22 331.15 407.93 337.43 414.22 344.8 420.52 352.03 425.48 360.18 429.02 368.77 432.75 377.12 435.34 386.02 436.76 395.13 438.77 404.14 439.96 413.55 440.22 422.98 441.34 432.4 441.4 440.94 440.45 448.18 439.04 458.06 429.35 468.22 420.74 467.56 414.48 466.08 406.7 462.52 397.64 456.99 388.58 451.84 379.15 445.7 369.93 439.14 360.78 433.3 351.91 426.96 343.89 420.33 336.07 414.19 329.24 407.38 323.99 399.99 319.14 392.75 316.05 384.64 315.24 375.86 315.05 367.07 317.21 358.46 321.24 350.52 325.73 342.72 331.91 335.84 339.22 330.43 346.78 325.44 355.28 322.19 364.17 321.13 373.14 320.63 382.37 322.39 391.3 326.61" stroke-dasharray="2 2" transform="rotate(80.80000000000001, 400, 400)" opacity="0.24"></path><path d="M386.98 337.48C394.34 341.31 400.77 346.6 406.11 352.83 411.46 359 415.8 366.01 419.04 373.41 422.44 380.68 424.93 388.41 426.45 396.24 428.37 404.02 429.54 412.01 429.81 419.83 430.59 431.09 427.89 447.95 424.06 452.71 419.21 455.5 403.49 452.09 392.82 446.13 385.35 441.87 377.61 436.67 370.05 431 362.55 425.78 355.32 420.06 348.8 414.06 342.45 408.39 336.93 402.22 332.71 395.69 328.8 389.27 326.31 382.3 325.66 375 325.45 367.69 327.13 360.73 330.32 354.48 333.86 348.32 338.77 343.03 344.63 339.01 350.69 335.26 357.56 332.96 364.78 332.42 372.07 332.24 379.62 333.87 386.98 337.48" stroke-dasharray="1 8" transform="rotate(84.84, 400, 400)" opacity="0.20"></path><path d="M383.29 348.34C394.95 354.65 404.04 365.41 409.63 377.57 415.7 389.54 419.25 403.01 419.39 415.44 420.99 427.88 418.89 436.76 413.72 440.65 408.9 444.13 400.15 442.46 388.33 435.26 376.52 428.73 364.09 419.01 353.9 408.53 344.19 398.83 337.36 387.4 336.07 375.69 335.95 363.98 341.53 354.16 350.37 348.31 359.73 343.08 371.62 342.62 383.29 348.34" stroke-dasharray="11 7" transform="rotate(88.88, 400, 400)" opacity="0.16"></path><path d="M380.4 359.21C389.09 363.99 396.16 372.14 400.78 381.37 405.71 390.57 408.74 400.85 408.98 410.1 409.06 422.53 396.56 430.28 384.42 424.4 375.64 419.48 366.59 411.92 359.28 403.65 352.26 395.77 347.38 386.71 346.49 377.9 346.28 369.09 350.19 362.14 356.5 358.31 363.12 354.77 371.71 354.76 380.4 359.21" stroke-dasharray="9 8" transform="rotate(92.92, 400, 400)" opacity="0.13"></path><path d="M378.46 370.07C389.99 376.6 398.42 391.89 398.56 404.13 400.08 416.35 392.86 420.5 381.25 413.53 369.63 407.2 358.27 393.29 356.9 381.48 356.78 369.66 366.93 364.14 378.46 370.07" stroke-dasharray="9 2" transform="rotate(96.96, 400, 400)" opacity="0.09"></path></g></svg>